<?xml version="1.0" encoding="utf-8"?>
<!-- Generator: Adobe Illustrator 17.0.0, SVG Export Plug-In . SVG Version: 6.00 Build 0)  -->
<!DOCTYPE svg PUBLIC "-//W3C//DTD SVG 1.1//EN" "http://www.w3.org/Graphics/SVG/1.1/DTD/svg11.dtd">
<svg version="1.1" id="Classic" xmlns="http://www.w3.org/2000/svg" xmlns:xlink="http://www.w3.org/1999/xlink" x="0px" y="0px"
	 width="283.46px" height="283.46px" viewBox="0 0 283.46 283.46" enable-background="new 0 0 283.46 283.46" xml:space="preserve">
<path d="M18.5,180l-7.625-0.75c0,0-2.625-0.625-3.125-1.875s1.25-8.25,1.25-8.25h11.375l5.5-7l6.75-9.75L30,151.5
	c0,0-1.25-0.375-1.125-1.125s0.625-1.125,1.5-1.375s4.875,0,4.875,0S43.5,138.5,46,135.875s14.5-12.5,18-14.75
	s19.375-11.875,22.25-13s10.125-3.25,14.375-4.375s26.5-3.375,31.5-3.125s25,2.375,29.75,3.25s16.125,4,17.875,4.75
	s1.75,0.75,1.75,0.75s0.125,0.625,2.625,3s7.625,10.875,8.75,12.5S197.25,132,197.25,132s3.375-0.125,7.625,0.375s12.75,3,18.5,4.5
	s14.375,4.875,16.375,6s3.375,2,3.375,2h2l2.25,3.25c0,0,6.875,2.75,9.5,4.25s6,4.5,7.375,7.375s1.5,9.5,1.5,10.25
	s0.625,3.5,0.625,3.5v7.25l-7.75,0.75c0,0-0.5,3-2.5,5.375s-5.625,5.75-8.75,7.375s-7,1.375-11.375,0s-10-3.5-11.75-5.875
	s-9.5-2-9.5-2l-42.625,0.125l-57.5,0.625L96.5,187.25c0,0-1.625,2.875-3.375,4.5s-4.125,3.5-8.25,5.75s-8.25,1.5-12.25,0.75
	s-12-3.5-14.5-6.875S54.5,184.5,54.5,184.5l-17.25-1.375l-12-1c0,0-4.625-0.25-5.5-0.75S18.5,180,18.5,180z"/>
</svg>
