<?xml version="1.0" encoding="iso-8859-1"?>
<!-- Generator: Adobe Illustrator 17.0.0, SVG Export Plug-In . SVG Version: 6.00 Build 0)  -->
<!DOCTYPE svg PUBLIC "-//W3C//DTD SVG 1.1//EN" "http://www.w3.org/Graphics/SVG/1.1/DTD/svg11.dtd">
<svg version="1.1" id="Layer_2" xmlns="http://www.w3.org/2000/svg" xmlns:xlink="http://www.w3.org/1999/xlink" x="0px" y="0px"
	 width="283.46px" height="283.46px" viewBox="0 0 283.46 283.46" style="enable-background:new 0 0 283.46 283.46;"
	 xml:space="preserve">
<g>
	<path d="M121.174,118.649c-3.265-1.715-6.511-1.113-9.732-1.23c-2.324-0.085-4.779,0.618-7.014,1.419
		c-5.942,2.128-11.86,4.351-17.657,6.839c-2.642,1.134-2.711,5.515-0.282,7.093c2.214,1.439,4.537,2.688,6.573,3.857
		c0.092,0.038,0.185,0.086,0.279,0.149c0.033,0.022,0.084,0.054,0.122,0.079c0.001,0.001,0.002,0.001,0.004,0.002c0,0,0,0,0,0
		c0.178,0.117,0.4,0.258,0.664,0.408c1.01-0.171,2.052-0.193,3.063-0.056c0.586-0.121,1.108-0.246,1.63-0.259
		c2.95-0.073,5.316-1.748,7.952-2.693c2.985-1.07,6.267-1.287,9.393-1.995c2.432-0.551,5.349-0.662,7.081-2.12
		c1.669-1.405,2.712-4.236,2.903-6.533C126.364,121.034,123.739,119.997,121.174,118.649z"/>
</g>
<g>
	<path d="M173.606,194.114c-2.432-1.806-5.697-2.628-7.813-4.687c-2.44-2.375-5.197-3.149-8.241-3.831
		c-5.377-1.204-10.7-2.662-16.097-3.762c-2.69-0.548-5.517-0.391-8.24-0.82c-3.79-0.598-7.541-1.447-11.174-2.163
		c-2.032,3.024-0.426,5.657,1.533,7.049c1.724,1.225,4.013,1.762,5.507,3.178c1.939,1.838,3.822,2.44,6.525,3.792
		c2.703,2.252,6.125,4.013,7.383,6.11c0.179,0.571,0.285,1.144,0.256,1.691c-0.153,2.835,0.944,4.349,3.594,5.214
		c4.013,1.31,9.526,4.418,11.166,5.172c1.364,0.634,2.463,1.431,4.363,1.982c1.554,0.533,2.482,1.055,3.922,2.019
		c1.976,1.324,5.055,0.691,6.887-0.618c3.868-2.763,2.867-7.935,5.866-11.05c0.168-0.174-0.033-0.674-0.008-1.019
		C179.338,198.238,176.333,196.139,173.606,194.114z"/>
</g>
<g>
	<path d="M68.531,49.477c1.739,3.012,4.335,4.999,7.326,6.274c2.348,1.001,5.056,1.158,7.302,1.626
		c0.873-0.892,1.461-1.514,2.071-2.113c1.955-1.92,4.683-3.497,5.699-5.824c1.55-3.551,1.782-7.666,1.05-11.587
		c-0.343-1.838-1.084-3.731-2.124-5.275c-1.093-1.623-2.357-2.242-4.955-1.414c-3.355,1.07-7.281,0.377-10.961,0.346
		c-0.344-0.003-0.711-0.687-1.02-1.091c-2.024-2.645-3.34-5.962-6.824-7.218c-1.213-0.437-2.834-1.49-3.584-1.062
		c-1.157,0.661-2.371,2.322-2.434,3.615c-0.308,6.34,1.091,12.423,4.124,18.005C65.329,45.835,67.344,47.422,68.531,49.477z"/>
</g>
<path d="M265.127,147.865c-0.807-5.3-2.643-10.576-4.853-15.493c-2.357-5.244-5.898-9.871-10.186-13.853
	c-3.038-2.821-6.179-5.604-8.759-8.817c-1.502-1.87-3.282-2.602-5.266-3.372c-0.8-0.31-1.538-0.777-2.316-1.147
	c-2.722-1.295-5.448-2.582-8.176-3.865c-1.104-0.519-2.216-1.022-3.665-1.689c0.956-0.844,1.302-1.249,1.734-1.514
	c2.118-1.3,4.388-2.392,6.361-3.88c2.502-1.887,5.644-2.83,7.414-5.88c1.128-1.943,3.287-3.297,5.019-4.876
	c2.364-2.154,4.575-4.549,7.203-6.319c2.212-1.49,4.926-2.234,7.417-3.308c0.667,0.58,1.357,0.711,2.045,0.704
	c0.856-0.008,1.71-0.131,3.202-0.259c0.477-1.998,1.441-4.222,1.411-6.433c-0.029-2.181-1.028-4.36-1.667-6.521
	c-0.9-3.044-3.202-4.616-6.035-5.615c-0.61-0.215-1.443-0.381-1.727-0.843c-2.038-3.317-5.461-4.877-8.539-6.853
	c-0.674-0.433-1.647-0.441-2.494-0.558c-3.563-0.491-7.123-1.045-10.702-1.367c-1.232-0.111-2.548,0.28-3.772,0.63
	c-1.561,0.446-3.049,1.143-4.604,1.617c-1.191,0.363-2.486,0.411-3.648,0.836c-3.395,1.242-6.7,2.743-10.127,3.882
	c-4.193,1.394-8.748,1.973-12.646,3.909c-4.828,2.398-9.203,2.843-14.152,0.688c-2.635-1.148-4.817,0.019-5.623,2.587
	c-0.945,3.006-0.667,7.7,3.182,9.575c0.927,0.451,1.912,1.711,2.036,2.703c0.334,2.663,0.344,5.388,0.253,8.08
	c-0.178,5.287-0.624,10.567-0.753,15.854c-0.181,7.44-0.122,14.885-0.26,22.327c-0.197,10.678-0.462,21.354-0.735,32.031
	c-0.06,2.355-0.275,4.705-0.382,6.457c-4.071-1.056-7.773-2.176-11.549-2.926c-1.732-0.344-3.65,0.307-5.409,0.028
	c-2.967-0.47-5.979-0.44-8.19,1.465c-2.529,2.179-5.236,1.335-8.034,1.577c5.952-3.242,7.867-9.314,8.989-14.896
	c1.367-6.8,0.911-13.997,0.951-21.024c0.045-7.904-0.614-15.829-0.238-23.709c0.242-5.085,0.801-10.031-0.659-15.042
	c-0.664-2.28-1.754-3.88-3.839-4.873c-3.733-1.778-7.469-3.549-11.192-5.347c-0.361-0.175-0.688-0.482-0.947-0.797
	c-1.085-1.316-4.624-1.745-6.076-0.876c-1.154,0.691-2.433,1.2-3.704,1.657c-1.517,0.546-3.084,0.951-4.503,1.379
	c-0.099-2.019-0.031-4.447-0.378-6.815c-0.485-3.312,0.031-4.03,3.459-4.159c2.924-0.11,5.89-0.089,8.747-0.615
	c0.688-0.127,1.277-0.226,1.77-0.17c2.621-0.233,5.232-0.517,7.846-0.778c1.002-0.247,1.985-0.381,2.906-0.267
	c1.62-0.136,3.242-0.252,4.873-0.31c0.918-0.032,1.949-0.088,2.997-0.073c0.09-0.043,0.179-0.075,0.269-0.122
	c0.888-0.459,2.023-0.47,3.055-0.615c3.945-0.554,3.817-0.549,3.969-4.652c0.063-1.695-0.408-2.587-1.909-3.219
	c-0.642-0.271-1.355-0.843-1.621-1.457c-1.576-3.639-5.079-4.033-8.186-4.495c-2.68-0.399-5.564,0-7.778,2.182
	c-0.434,0.427-1.278,0.609-1.935,0.613c-7.434,0.053-14.568,1.545-21.467,4.278c-0.582,0.231-1.278,0.173-2.154,0.278
	c2.748-3.788,2.821-3.662,5.972-5.476c2.052-1.182,4.261-2.476,5.689-4.282c3.39-4.289,6.953-8.402,10.73-12.34
	c0.532-0.555,1.195-1.054,1.893-1.367c1.648-0.738,3.354-1.348,5.036-2.01c1.69-0.665,2.468-1.879,2.157-3.696
	c-0.367-2.145-0.451-4.415-1.255-6.387c-0.716-1.755-1.944-3.639-3.483-4.648c-2.771-1.818-5.947-3.015-8.942-4.494
	c-0.539-0.266-1.178-0.529-1.51-0.984c-1.579-2.166-3.963-2.572-6.314-3.266c-2.74-0.808-4.617-0.001-6.699,1.857
	c-1.565,1.396-2.669,2.571-2.433,4.719c0.165,1.497,0.242,3.003,0.325,4.075c1.563,1.146,2.863,2.1,4.223,3.097
	c-0.889,1.572-1.575,2.975-2.434,4.262c-1.473,2.207-3.07,4.33-4.585,6.51c-1.959,2.818-3.786,5.735-5.864,8.461
	c-1.49,1.954-3.28,3.681-4.969,5.479c-2.041,2.173-4.078,4.353-6.19,6.457c-1.774,1.768-3.704,3.379-5.469,5.155
	c-1.634,1.644-2.933,4.519-4.753,4.86c-2.523,0.472-4.871,1.316-7.295,1.993c-2.79,0.78-5.564,1.618-8.363,2.363
	c-3.073,0.818-6.148,1.645-9.255,2.311c-3.844,0.825-7.731,1.451-11.585,2.232c-4.273,0.866-8.516,1.884-12.8,2.687
	c-2.027,0.38-2.87,1.527-1.934,3.401c0.498,0.997,1.242,1.902,2.005,2.728c1.332,1.44,2.765,2.787,4.313,4.331
	c0.006-0.004,0.453-0.51,0.856-0.478c2.757,0.22,5.503,0.577,8.259,0.827c0.447,0.041,0.974-0.142,1.376-0.373
	c2.422-1.388,4.802-2.85,7.231-4.224c1.259-0.713,2.543-1.431,3.899-1.915c4.218-1.505,8.474-2.902,12.719-4.331
	c0.742-0.25,1.564-0.762,2.239-0.622c1.821,0.379,4.362,0.511,5.186,1.718c1.291,1.89,1.54,4.559,1.983,6.943
	c0.515,2.772-0.124,3.371-2.988,4.045c-3.078,0.725-6.221,1.37-9.127,2.559c-2.461,1.007-4.525,2.144-6.665-0.471
	c-0.505-0.617-1.87-1.259-2.361-0.996c-0.872,0.467-1.815,1.55-1.962,2.494c-0.625,4.01-1.017,8.059-1.403,12.102
	c-0.343,3.594-0.533,7.203-0.851,10.799c-0.228,2.58-0.665,5.146-0.814,7.729c-0.185,3.204,0.354,6.542-0.361,9.603
	c-1.193,5.114-1.263,9.929-0.023,15.101c1.332,5.558,4.473,9.902,7.583,14.359c0.413,0.592,1.724,0.602,2.639,0.787
	c0.698,0.141,1.426,0.134,2.328,0.208c0.043-0.195,0.585,0.01,0.631-0.197l1.451,0.069c1.097,0.14,1.416,0.169,2.695,0.035
	l1.002,0.035c0.15,0.121,0.436-0.31,0.581-0.192c1.582-0.315,3.111-0.968,4.573-0.841c3.36,0.292,6.498-0.431,9.416-1.828
	c2.738-1.31,3.85-1.027,3.769,2.045c-0.082,3.103-0.628,6.222-1.292,9.265c-0.186,0.854-1.394,1.874-2.317,2.115
	c-5.381,1.408-10.841,2.513-16.221,3.925c-2.131,0.559-4.119,1.657-6.182,2.486c-0.62,0.249-1.262,0.535-1.914,0.599
	c-3.841,0.379-8.051-0.165-11.438,1.261c-3.957,1.665-8.102,0.545-12.17,2.625c-4.405,2.253-10.088,2.044-15.228,2.811
	c-3.054,0.456-6.172,1.169-9.193,0.926c-2.134-0.171-4.19-1.681-6.217-2.718c-2.754-1.41-5.288-0.962-5.519,1.239
	c-0.261,2.489-0.297,5.031-0.098,7.523c0.075,0.937,0.893,2.06,1.699,2.651c3.604,2.642,7.427,4.989,10.97,7.706
	c2.468,1.893,5.156,1.472,7.329,0.459c4.064-1.895,7.775-4.542,11.666-6.82c0.509-0.298,1.207-0.314,1.826-0.371
	c1.267-0.117,2.591,0.025,3.799-0.293c2.72-0.717,5.33-2.041,8.081-2.418c7.313-1.004,13.857-4.87,21.307-5.386
	c2.752-0.19,5.416-1.446,8.172-1.899c1.023-0.168,2.196,0.574,3.301,0.902c-0.541,0.929-0.957,1.967-1.651,2.762
	c-1.243,1.424-2.916,2.527-3.944,4.073c-2.893,4.35-4.881,9.399-9.853,12.042c-0.142,0.076-0.219,0.266-0.339,0.391
	c-2.83,2.948-5.585,5.975-8.531,8.803c-1.222,1.173-3.196,1.639-4.237,2.91c-3.296,4.025-7.714,5.997-12.436,7.582
	c-1.541,0.517-2.166,1.605-1.87,3.263c0.276,1.544,1.093,2.276,2.674,2.245c0.86-0.017,1.735,0.246,2.581,0.161
	c4.247-0.423,8.681,0.226,12.472-2.684c1.308-1.004,3.118-1.404,4.75-1.922c1.366-0.433,2.818-0.588,4.208-0.957
	c0.987-0.262,1.964-0.608,2.892-1.033c3.353-1.536,7.133-2.564,9.922-4.814c4.761-3.841,10.394-6.689,14.045-11.898
	c2.508-3.578,5.923-6.648,7.827-10.493c2.863-5.78,4.696-12.065,7.129-18.07c0.39-0.963,1.561-2.164,2.479-2.265
	c5.022-0.553,10.11-0.558,15.11-1.237c2.942-0.399,5.938-0.145,8.862-2.028c2.293-1.477,5.741-1.175,8.684-1.611
	c0.275-0.041,0.593,0.335,0.915,0.452c0.692,0.25,1.403,0.659,2.101,0.649c4.49-0.064,8.645,1.07,12.833,2.684
	c4.04,1.557,8.043,5.385,12.848,1.182c0,4.003,0.086,7.676-0.019,11.344c-0.186,6.466-0.591,12.926-0.718,19.392
	c-0.18,9.129-0.414,18.266-0.215,27.391c0.237,10.868,0.825,21.732,1.444,32.587c0.182,3.196,0.857,6.387,1.593,9.513
	c0.195,0.829,1.354,1.759,2.249,2.016c1.245,0.357,4.873-2.774,5.501-4.031c1.018-2.036,2.273-3.954,3.422-5.925
	c0.258-0.443,0.595-0.872,0.721-1.354c1.831-7.042,4.219-14.004,5.292-21.162c1.338-8.923,1.929-17.998,2.219-27.027
	c0.382-11.852,0.194-23.724,0.178-35.588c-0.011-8.523-0.216-17.045-0.2-25.567c0.019-10.177,0.233-20.354,0.263-30.531
	c0.016-5.382-0.251-10.765-0.209-16.146c0.007-0.838,0.971-2.372,1.521-2.385c2.825-0.068,5.713-0.02,8.479,0.511
	c3.743,0.719,6.092,4.598,10.143,4.852c0.07,0.004,0.137,0.103,0.2,0.163c2.958,2.792,5.958,5.541,8.844,8.405
	c0.767,0.761,1.036,2.018,1.79,2.8c3.586,3.721,4.99,8.571,5.31,13.29c0.393,5.805-0.616,11.709-1.1,17.564
	c-0.058,0.699-0.589,1.374-0.957,2.029c-1.438,2.556-3.234,4.971-4.271,7.678c-1.543,4.027-5.41,6.742-9.726,6.741
	c-3.77-0.001-6.48-2.182-9.515-3.76c-2.417-1.257-4.817-2.548-7.864-4.163c0.16,1.729-0.042,2.871,0.396,3.658
	c1.246,2.239,2.667,4.396,4.184,6.463c1.264,1.722,2.546,3.548,4.201,4.842c3.675,2.874,6.619,5.86,6.64,11.047
	c0.02,4.78,0.674,9.453,6.614,11.022c4.302,1.136,8.464,2.193,12.53-0.508c0.93-0.618,1.65-1.628,2.64-2.067
	c4.185-1.854,8.379-3.615,10.666-8.008c0.248-0.476,0.984-0.676,1.433-1.072c0.822-0.726,1.675-1.438,2.384-2.268
	c3.86-4.517,4.729-10.244,6.154-15.713c0.62-2.38,0.892-4.877,1.071-7.339C264.917,157.28,265.823,152.442,265.127,147.865z
	 M124.921,88.984c0.225-0.234,0.175-0.834,0.102-1.237c-0.297-1.631,0.567-2.09,1.939-1.877c2.222,0.345,4.249,0.3,6.049-1.407
	c1.055-1.001,2.184-0.706,2.494,0.842c0.355,1.77,0.52,3.578,0.819,5.741c-0.342,1.415-0.198,3.758-1.262,4.636
	c-2.436,2.008-5.36,3.797-8.833,2.926c-0.864-0.216-2.051-1.232-2.155-2.006C123.73,94.05,122.686,91.31,124.921,88.984z
	 M102.281,67.607c1.186-0.643,2.431-1.277,3.734-1.567c0.947-0.211,2.013,0.108,3.025,0.19c0.323-0.038,0.646-0.076,0.969-0.113
	c0.423,3.57,0.907,7.135,1.193,10.716c0.035,0.436-0.917,1.117-1.54,1.4c-0.931,0.422-1.976,0.592-3.35,0.974
	c-0.442-1.432-0.786-2.832-1.305-4.164c-0.764-1.96-1.678-3.861-2.469-5.811C102.328,68.714,102.115,67.697,102.281,67.607z
	 M80.131,101.373c1.377-3.177,4.147-5.295,8.984-4.044c-2.539,3.655-4.963,7.145-7.388,10.635c-0.338-0.049-0.676-0.098-1.014-0.146
	C80.46,105.643,79.378,103.111,80.131,101.373z M130.978,162.118c-1.73,0.465-3.583,0.626-5.198,1.337
	c-4.198,1.848-8.767,0.322-10.895-3.699c-0.888-1.677-2.203-3.123-3.171-4.764c-0.341-0.579-0.225-1.428-0.317-2.154
	c0.617,0.03,1.239,0.124,1.851,0.079c1.614-0.118,3.224-0.296,4.78-0.445c0.144-0.388,0.299-0.709,0.461-1.002
	c0.431-0.447,0.126-0.367,0.479-0.689c0.83-0.948,1.949-1.07,3.749-0.68c0.519,0.113,1.061,0.136,1.612,0.135
	c0.222-0.045,0.564-0.106,0.088,0.002c1.499-0.078,0.52,0.247,1.845-0.057c0.309-0.013,0.618-0.027,0.934-0.027
	c1.801,2.745,3.643,5.474,5.39,8.262c0.526,0.839,0.789,1.843,1.172,2.772C132.833,161.502,131.92,161.865,130.978,162.118z
	 M135.908,131.715c-0.445,2.085-1.004,4.173-1.805,6.14c-0.299,0.735-1.37,1.452-2.203,1.623c-4.321,0.886-8.496,0.311-12.827-0.705
	c-3.257-0.764-6.941-0.177-10.356,0.333c-3.658,0.547-7.231,1.674-10.966,2.596c-0.013,0.006-0.022,0.016-0.035,0.021
	c-1.496,0.644-2.571,1.776-4.34,1.568c-0.125-0.015-0.244-0.044-0.361-0.079c-3.941,1.121-7.944,2.183-12.478,3.412
	c0-3.767,0.022-6.852-0.006-9.936c-0.028-3.116-0.451-6.275-0.066-9.335c0.382-3.035,1.241-5.804,5.331-6.592
	c2.279-0.439,4.113-3.026,6.237-4.517c0.676-0.475,1.639-0.54,2.537-0.812c0.642-1.218,1.029-3.054,2.158-3.895
	c4.077-3.04,4.397-7.842,6.042-11.988c1.092-2.752,1.743-5.702,2.356-8.614c0.406-1.929,1.814-2.019,3.139-1.987
	c1.482,0.036,2.236,0.993,2.285,2.612c0.069,2.252,0.079,4.574,0.646,6.726c0.647,2.455,1.863,4.761,2.87,7.117
	c0.164,0.384,0.733,0.673,0.754,1.028c0.289,4.978,4.386,6.041,7.797,8.102c3.246,1.961,5.755,1.13,8.543-0.578
	c2.954-1.81,5.186-0.345,5.49,3.079C137.087,121.984,136.942,126.87,135.908,131.715z M219.906,74.712
	c-0.394,0.59-0.871,1.031-1.401,1.388c-0.061,0.081-0.116,0.159-0.181,0.242c-3.39,4.321-6.21,9.088-9.302,13.646
	c-0.955,1.407-1.981,2.774-3.082,4.067c-0.331,0.389-1.025,0.47-1.553,0.693c-0.221-0.528-0.599-1.045-0.638-1.586
	c-0.35-4.753-0.681-9.509-0.928-14.268c-0.109-2.09,0.697-3.535,2.857-4.428c4.25-1.757,8.319-3.952,12.57-5.706
	c1.589-0.656,3.477-0.587,5.44-0.88c-0.983,1.65-1.687,2.832-2.457,4.126C220.957,72.981,220.389,73.987,219.906,74.712z"/>
</svg>
