<?xml version="1.0" encoding="utf-8"?>
<!-- Generator: Adobe Illustrator 17.0.0, SVG Export Plug-In . SVG Version: 6.00 Build 0)  -->
<!DOCTYPE svg PUBLIC "-//W3C//DTD SVG 1.1//EN" "http://www.w3.org/Graphics/SVG/1.1/DTD/svg11.dtd">
<svg version="1.1" id="Layer_1" xmlns="http://www.w3.org/2000/svg" xmlns:xlink="http://www.w3.org/1999/xlink" x="0px" y="0px"
	 width="283.46px" height="283.46px" viewBox="0 0 283.46 283.46" enable-background="new 0 0 283.46 283.46" xml:space="preserve">
<path d="M186.306,96.684c2.352-5.705,3.658-11.952,3.658-18.507c0-26.85-21.766-48.616-48.616-48.616
	c-26.85,0-48.616,21.766-48.616,48.616c0,6.067,1.121,11.871,3.151,17.226c-25.057,1.956-44.784,22.893-44.784,48.452
	c0,26.85,21.766,48.616,48.616,48.616c4.484,0,8.823-0.612,12.945-1.748l-13.538,41.559h84.273l-12.105-40.094
	c4.032,1.084,8.268,1.668,12.643,1.668c26.85,0,48.616-21.766,48.616-48.616C232.549,119.186,212.054,97.922,186.306,96.684z"/>
</svg>
