<?xml version="1.0" encoding="UTF-8" standalone="no"?>
<!-- Created with Inkscape (http://www.inkscape.org/) -->

<svg
   width="112.08758mm"
   height="109.89563mm"
   viewBox="0 0 112.08758 109.89563"
   version="1.1"
   id="svg1"
   xml:space="preserve"
   inkscape:export-filename="globe.svg"
   inkscape:export-xdpi="96"
   inkscape:export-ydpi="96"
   xmlns:inkscape="http://www.inkscape.org/namespaces/inkscape"
   xmlns:sodipodi="http://sodipodi.sourceforge.net/DTD/sodipodi-0.dtd"
   xmlns="http://www.w3.org/2000/svg"
   xmlns:svg="http://www.w3.org/2000/svg"><sodipodi:namedview
     id="namedview1"
     pagecolor="#ffffff"
     bordercolor="#000000"
     borderopacity="0.25"
     inkscape:showpageshadow="2"
     inkscape:pageopacity="0.0"
     inkscape:pagecheckerboard="0"
     inkscape:deskcolor="#d1d1d1"
     inkscape:document-units="mm"
     inkscape:zoom="1.0324986"
     inkscape:cx="396.61071"
     inkscape:cy="561.7441"
     inkscape:window-width="1051"
     inkscape:window-height="1068"
     inkscape:window-x="130"
     inkscape:window-y="130"
     inkscape:window-maximized="0"
     inkscape:current-layer="layer1"><inkscape:page
       x="0"
       y="-6.1534511e-14"
       width="112.08758"
       height="109.89562"
       id="page2"
       margin="0"
       bleed="0" /></sodipodi:namedview><defs
     id="defs1" /><g
     inkscape:label="Layer 1"
     inkscape:groupmode="layer"
     id="layer1"
     transform="translate(-46.425544,-43.582053)"><path
       style="fill:#000000"
       d="m 95.475,153.19798 c -7.036335,-0.72553 -17.556542,-4.58763 -24.004399,-8.81232 -2.745993,-1.7992 -4.705183,-3.41996 -8.619333,-7.13046 -13.783678,-13.06649 -19.634755,-33.8239 -14.69236,-52.12292 1.78426,-6.60615 4.386157,-12.46912 7.446096,-16.77862 4.279565,-6.02717 10.77794,-12.4151 15.794601,-15.52615 5.935237,-3.68069 8.706822,-5.020842 13.341549,-6.451065 7.306085,-2.254574 14.594386,-3.165731 21.256806,-2.657449 7.708,0.588051 14.92754,2.465476 20.77602,5.402754 5.68711,2.85624 9.44623,5.40506 13.66252,9.26366 5.79447,5.30291 8.97429,9.51081 12.28669,16.25915 4.04467,8.24018 6.11896,17.18181 5.74739,24.77522 -0.33593,6.86507 -0.99663,10.84888 -2.53086,15.26021 -0.42126,1.21126 -1.07518,3.08771 -1.45314,4.16988 -1.28842,3.68899 -5.01431,9.86134 -8.72973,14.46177 -0.81149,1.00479 -3.20594,3.44583 -5.32098,5.42453 -3.21401,3.00682 -4.41901,3.93728 -7.33758,5.66582 -1.92062,1.1375 -4.13034,2.47535 -4.91049,2.97302 -3.25634,2.07724 -14.02537,5.30782 -19.57781,5.87311 -3.20037,0.32583 -9.73047,0.3009 -13.13499,-0.0501 z m 4.89479,-2.18444 v -1.71979 h -0.92362 c -1.99059,0 -9.114248,-0.85083 -11.201957,-1.33793 -3.081498,-0.71896 -3.000438,-0.7398 -2.526979,0.64972 0.218115,0.64014 0.597841,1.34195 0.843836,1.55959 0.62982,0.55722 6.602402,2.03596 8.29718,2.05428 0.77578,0.008 1.88675,0.11376 2.46883,0.23416 0.58209,0.1204 1.50482,0.2326 2.05052,0.24933 l 0.99219,0.0304 z m 8.28816,1.21038 c 0.33165,-0.33165 1.26875,-2.72188 1.12391,-2.86672 -0.0551,-0.0551 -1.95719,-0.0152 -4.22693,0.0886 l -4.1268,0.18875 v 1.58933 1.58933 l 3.47479,-0.15454 c 1.91114,-0.085 3.60091,-0.28064 3.75503,-0.43477 z M 84.700367,148.3918 c -0.478348,-1.29854 -0.616453,-1.44776 -1.490859,-1.61083 -2.675544,-0.49898 -10.358764,-3.33101 -12.213623,-4.50194 -1.001063,-0.63194 -1.280272,-0.62033 -0.850689,0.0354 0.378045,0.57705 4.103242,2.81207 7.024415,4.21447 3.17084,1.52227 7.266147,3.25297 7.757705,3.27846 0.193927,0.0101 0.113569,-0.49115 -0.226949,-1.41554 z m 15.669423,-4.91889 v -5.02708 l -1.25677,-0.002 c -2.11424,-0.004 -7.668939,-0.74085 -11.641666,-1.54422 l -3.770313,-0.76243 7.45e-4,1.48525 c 9.42e-4,1.87658 0.453515,5.60498 0.888197,7.31717 l 0.333042,1.31184 1.836404,0.45998 c 2.908897,0.72862 9.492541,1.63584 12.750471,1.757 l 0.85989,0.032 z m 8.20209,4.90718 c 0,-0.066 -0.51673,-0.34849 -1.14828,-0.62785 -0.70143,-0.31028 -1.36963,-0.86611 -1.71712,-1.42836 -0.46962,-0.75985 -1.81772,-1.85205 -3.94341,-3.19484 -0.26241,-0.16577 -0.33494,0.39289 -0.33494,2.57968 V 148.5 H 105 c 1.96453,0 3.57188,-0.054 3.57188,-0.11991 z m -24.719204,-2.9678 c -0.397407,-1.03563 -0.674124,-2.81739 -0.818583,-5.27081 -0.27472,-4.66567 0.18916,-4.06731 -4.393669,-5.6674 -2.195036,-0.7664 -5.704835,-2.25766 -7.799554,-3.31393 l -3.80858,-1.92048 v 1.80766 c 0,1.99067 0.515855,4.80229 1.339497,7.3008 0.513128,1.55657 0.611763,1.66925 2.441886,2.78976 2.717122,1.66357 10.737158,4.66009 12.584946,4.7021 0.476414,0.0108 0.583595,-0.0901 0.454057,-0.4277 z m 57.871404,-9.08313 c 2.49614,-2.38164 4.30914,-4.5659 6.59244,-7.94244 1.64024,-2.42558 1.71547,-2.60925 2.03935,-4.97927 0.18495,-1.35344 0.29492,-2.50161 0.24437,-2.55149 -0.0506,-0.0499 -0.92534,0.693 -1.94399,1.65084 -2.29034,2.15363 -4.64283,4.02215 -7.2574,5.76436 -1.98018,1.31949 -2.00393,1.3489 -2.08366,2.57969 l -0.0806,1.24498 h 1.05181 c 0.96045,0 1.06741,0.071 1.23145,0.81793 0.14463,0.65846 0.0501,0.95508 -0.48473,1.52136 -0.72013,0.76245 -3.35571,5.04315 -3.35653,5.45167 -5.3e-4,0.2609 0.58263,-0.25168 4.04753,-3.55763 z m -74.812543,0.15223 c -0.352776,-1.42467 -0.723005,-3.80837 -0.82273,-5.29713 -0.158688,-2.36897 -0.251475,-2.74938 -0.743397,-3.04779 -2.314446,-1.40399 -6.244378,-4.51199 -8.292103,-6.55783 -1.347308,-1.34607 -2.528572,-2.4474 -2.625032,-2.4474 -0.09646,0 -0.09441,1.43283 0.0046,3.18405 l 0.179946,3.18405 1.173898,1.77689 c 3.406535,5.15635 6.267508,8.3093 9.525685,10.49783 1.164095,0.78193 2.144447,1.39377 2.178559,1.35966 0.03411,-0.0341 -0.226612,-1.22766 -0.579389,-2.65233 z m 33.722843,-1.03079 v -2.20148 l -1.78594,-0.92869 c -1.5056,-0.78291 -1.9936,-1.22378 -3.10886,-2.8086 -1.306443,-1.85651 -1.364089,-1.89959 -4.630205,-3.4601 -4.634146,-2.21413 -6.602099,-3.05241 -6.770498,-2.88402 -0.15272,0.15272 -0.881981,9.075 -0.894883,10.94861 -0.0068,0.9889 0.06264,1.1068 0.720068,1.22255 0.400182,0.0705 2.334948,0.45233 4.299479,0.8486 3.719359,0.75024 8.396119,1.37052 10.781769,1.42999 l 1.38907,0.0346 z m 2.01929,1.65073 c 0.49012,-0.30291 0.89112,-0.70689 0.89112,-0.89773 0,-0.19084 0.1786,-0.41552 0.39688,-0.49928 1.0892,-0.41797 -0.47268,-3.2446 -1.61738,-2.92707 -0.47385,0.13145 -0.58446,0.42401 -0.72573,1.91964 -0.21188,2.24316 -0.21266,2.95519 -0.003,2.95519 0.092,0 0.56822,-0.24784 1.05834,-0.55075 z m -19.779206,-7.64905 c 0.181465,-2.90916 0.394145,-5.68505 0.472621,-6.16864 0.134583,-0.82934 0.0133,-0.99672 -2.136003,-2.94801 -1.964537,-1.78354 -2.571641,-2.17128 -4.403636,-2.81246 -1.168722,-0.40905 -3.399761,-1.37543 -4.957865,-2.14751 -1.558104,-0.77209 -2.944392,-1.40379 -3.080641,-1.40379 -0.539718,0 -1.210467,3.8718 -1.520018,8.77407 -0.239349,3.79051 -0.244191,5.16142 -0.01919,5.43253 0.843103,1.01588 13.245101,6.4615 14.90086,6.54285 0.352003,0.0173 0.463292,-0.771 0.743868,-5.26904 z m 52.866936,3.29267 c 2.77947,-0.63106 2.72839,-0.6033 2.72839,-1.48275 0,-0.43888 -0.0893,-0.75799 -0.19843,-0.70912 -0.10914,0.0489 -1.09141,0.51935 -2.18282,1.04552 -1.0914,0.52618 -2.28203,1.08338 -2.64583,1.23822 -0.627,0.26686 -0.6313,0.28246 -0.0826,0.29944 0.31839,0.01 1.38995,-0.16624 2.38125,-0.39131 z m -2.33025,-0.89561 c 1.07405,-0.44973 2.64738,-1.18788 3.4963,-1.64035 l 1.54349,-0.82267 -0.12096,-1.09264 c -0.0665,-0.60095 -0.24607,-2.40233 -0.39897,-4.00306 -0.24748,-2.59089 -1.25542,-8.84538 -1.46487,-9.08985 -0.0443,-0.0517 -3.09418,1.09493 -6.77751,2.54808 -3.68333,1.45315 -7.14345,2.72124 -7.68915,2.81798 -1.17766,0.20877 -1.18835,0.28493 -0.59375,4.2299 0.21742,1.44253 0.39531,3.14525 0.39531,3.78382 0,1.09111 0.0597,1.18614 0.99219,1.57805 0.5457,0.22935 1.94469,0.4923 3.10885,0.58433 1.92109,0.15186 2.2382,0.26021 3.43189,1.17256 0.72337,0.55288 1.49727,0.94815 1.71979,0.87838 0.22252,-0.0698 1.28334,-0.49481 2.35739,-0.94453 z m -27.51352,-0.67955 c 0.47027,-0.65485 1.06785,-1.19063 1.32795,-1.19063 0.26011,0 0.99685,-0.35255 1.63721,-0.78344 l 1.16429,-0.78345 0.22049,0.65116 c 0.25863,0.76378 0.45612,0.79373 1.53962,0.23343 0.66213,-0.3424 0.94546,-0.36069 1.57136,-0.10143 0.83172,0.3445 3.55886,0.13545 3.82373,-0.29312 0.26008,-0.42082 2.42669,-0.29504 2.59778,0.15081 0.0838,0.21828 0.39415,0.39688 0.68976,0.39688 0.41142,0 0.53605,-0.17065 0.53139,-0.72761 -0.007,-0.88232 -0.97452,-7.48494 -1.1173,-7.62772 -0.0558,-0.0558 -1.28438,0.12212 -2.73018,0.39538 -1.4458,0.27325 -3.19428,0.57598 -3.8855,0.67272 -0.69122,0.0967 -1.25677,0.28767 -1.25677,0.42427 0,0.1366 0.12779,0.24837 0.28398,0.24837 0.15619,0 0.24549,0.19006 0.19844,0.42235 -0.10734,0.52994 -2.09,1.2509 -2.45,0.8909 -0.14021,-0.1402 -0.56006,-0.25491 -0.93301,-0.25491 -0.44107,0 -0.76939,-0.20202 -0.93928,-0.57794 -0.2463,-0.54502 -0.43821,-0.57892 -3.37006,-0.59531 l -3.1089,-0.0174 4e-5,4.29948 4e-5,4.29948 0.7276,0.002 c 0.40019,9.6e-4 1.08479,0.2383 1.52136,0.52743 0.43656,0.28912 0.86286,0.52646 0.94733,0.52742 0.0845,9.6e-4 0.53836,-0.53404 1.00863,-1.18888 z m 8.09674,-7.80683 c -0.56136,-0.6203 -0.5321,-0.665 0.57284,-0.87502 0.8451,-0.16063 1.14842,0.11156 1.14842,1.03057 0,0.56244 -1.16692,0.45699 -1.72126,-0.15555 z m -13.155,3.63964 -0.0727,-4.29948 -1.5875,-0.158 c -0.87313,-0.0869 -2.08679,-0.24506 -2.69702,-0.35146 l -1.10952,-0.19346 -0.694208,1.36996 c -0.381814,0.75347 -0.643827,1.42033 -0.582251,1.48191 0.06158,0.0616 0.990839,0.27942 2.065029,0.4841 1.56079,0.29739 2.06877,0.51723 2.52908,1.09453 0.45035,0.56479 0.52322,0.86125 0.33401,1.3589 -0.1331,0.35008 -0.242,1.03379 -0.242,1.51935 0,0.70666 0.17159,0.99272 0.8599,1.43352 0.47294,0.30288 0.95214,0.5527 1.06489,0.55515 0.11274,0.002 0.17227,-1.93031 0.13229,-4.29502 z m 43.45126,-1.87988 c 0.94588,-0.72409 2.76159,-2.33614 4.03489,-3.58234 2.60114,-2.54575 2.57808,-2.47518 2.04061,-6.24559 -0.20111,-1.41086 -2.22116,-8.95378 -2.49749,-9.3257 -0.0267,-0.0359 -1.47589,1.33331 -3.22047,3.04271 -2.45301,2.40353 -3.63198,3.34787 -5.20149,4.16632 -1.49722,0.78076 -2.03005,1.19712 -2.03157,1.5875 -0.001,0.29104 0.22809,1.71979 0.50937,3.175 0.28129,1.45521 0.64349,3.95552 0.80491,5.55625 0.16141,1.60073 0.35437,3.41275 0.4288,4.02671 l 0.13532,1.11629 1.63866,-1.10031 c 0.90127,-0.60517 2.41257,-1.69274 3.35846,-2.41684 z m -77.945332,-2.08887 c 0.156787,-3.6462 0.741868,-7.84546 1.3179,-9.45886 0.09634,-0.26985 -0.459923,-0.82029 -1.738003,-1.71979 -2.453686,-1.72688 -7.438371,-5.98785 -8.182817,-6.99476 -0.321103,-0.43432 -0.681877,-0.72907 -0.80172,-0.655 -0.712594,0.44041 -2.245423,7.64624 -2.389491,11.233 -0.06829,1.70012 -0.0471,1.7603 1.181905,3.35749 0.688292,0.89449 2.113205,2.41286 3.166474,3.37417 2.037215,1.85934 6.48211,5.149 6.969205,5.1579 0.193324,0.004 0.354005,-1.44436 0.476547,-4.29415 z M 51.557509,114.6724 c -1.098902,-1.60021 -2.181259,-3.34807 -2.405237,-3.88412 -0.665557,-1.59291 -0.655432,-0.93138 0.02658,1.73688 0.570297,2.23117 1.602721,4.96696 3.591322,9.5165 l 0.63607,1.45521 0.07463,-2.95749 0.07463,-2.9575 z m 102.415761,2.94008 c 1.06739,-2.91508 1.95399,-5.63541 1.957,-6.00462 0.001,-0.13604 -0.57477,0.87599 -1.27973,2.24896 -0.70497,1.37296 -1.65461,3.15913 -2.11032,3.96925 -0.64614,1.14864 -0.86166,1.90595 -0.9789,3.43958 l -0.15033,1.96664 0.80838,-1.51876 c 0.4446,-0.83532 1.23386,-2.68079 1.7539,-4.10105 z m -62.334729,4.68971 c 0.343476,-0.22547 0.345598,-0.29352 0.01577,-0.50571 -0.45733,-0.29423 -3.500327,-0.85637 -3.677364,-0.67934 -0.132253,0.13226 2.55159,1.41543 3.000135,1.4344 0.145521,0.006 0.443177,-0.10605 0.661459,-0.24935 z m 9.260419,-0.89368 c 0,-0.55282 -0.65666,-0.69939 -2.0049,-0.44751 -0.98108,0.18328 -1.23913,0.15031 -1.36367,-0.17425 -0.21819,-0.56857 0.90019,-1.33779 2.24409,-1.54348 1.00182,-0.15334 1.12244,-0.2482 1.10578,-0.86967 -0.0103,-0.38366 -0.40028,-1.59053 -0.86667,-2.68194 -0.80311,-1.87937 -0.89662,-1.98887 -1.76724,-2.06938 -0.5056,-0.0468 -1.03238,-0.19559 -1.17062,-0.33073 -0.13825,-0.13515 -0.70379,-0.24572 -1.25677,-0.24572 -0.72647,0 -1.00542,0.11241 -1.00542,0.40518 0,0.60875 -0.583235,0.71405 -1.601486,0.28915 -0.742879,-0.31 -1.335158,-0.32921 -3.193084,-0.10357 l -2.28103,0.27702 -0.43095,2.19331 c -0.541881,2.75791 -0.53867,3.11745 0.03207,3.59136 0.634356,0.52672 4.973782,1.36276 5.560125,1.07122 0.637988,-0.31723 2.037583,-0.23287 2.499713,0.15067 0.43056,0.35733 2.663742,0.77889 4.375582,0.82598 0.79957,0.022 1.12448,-0.0756 1.12448,-0.33764 z m 15.07103,-0.59001 c 1.9589,-0.35892 3.61803,-0.70896 3.68695,-0.77787 0.0689,-0.0689 -0.14107,-2.0579 -0.46664,-4.41995 -0.74562,-5.4096 -2.41882,-12.8936 -2.88262,-12.8936 -0.18489,0 -1.8321,0.29765 -3.66048,0.66146 -1.82837,0.3638 -3.79469,0.66145 -4.36958,0.66145 -0.75655,0 -1.09062,0.1279 -1.20947,0.46302 -0.0903,0.25467 -0.32838,0.65506 -0.52903,0.88976 -0.20066,0.2347 -0.43702,1.03624 -0.52525,1.7812 -0.15603,1.31744 -0.21418,1.39493 -2.12798,2.83537 l -1.96758,1.48091 0.1188,2.02956 c 0.0653,1.11626 0.21061,2.37559 0.32283,2.79852 0.15541,0.58577 0.0958,0.84808 -0.25012,1.10104 -0.30813,0.22531 -0.42692,0.61197 -0.36948,1.20264 0.0808,0.83105 0.17471,0.9001 2.06904,1.52165 1.0914,0.3581 2.40109,0.86579 2.91041,1.12821 1.18984,0.61303 4.19761,0.46236 9.2502,-0.46337 z m 6.49251,-1.28118 c 0.83574,-0.18138 11.64983,-4.43593 12.89844,-5.07458 0.90098,-0.46085 0.89886,-0.68343 -0.0363,-3.79816 -0.59781,-1.99122 -4.81588,-12.26822 -5.19618,-12.66009 -0.0493,-0.0508 -0.66323,0.21379 -1.36428,0.58801 -1.62293,0.86631 -7.3821,2.87611 -9.54286,3.3302 -0.97286,0.20445 -1.65365,0.48518 -1.65365,0.6819 0,0.18392 0.404,2.04288 0.89778,4.13104 0.49378,2.08815 1.15188,5.58258 1.46244,7.7654 0.77375,5.43852 0.78059,5.46653 1.30111,5.32669 0.24184,-0.065 0.7969,-0.19566 1.23346,-0.29041 z m 30.35127,-4.0441 c 1.04068,-1.79892 2.58936,-5.2458 2.58936,-5.76311 0,-0.10052 -0.39753,-0.10818 -0.88339,-0.017 -1.10194,0.20672 -3.0892,-0.61793 -3.8646,-1.60369 -0.40516,-0.51508 -0.54368,-1.07828 -0.54368,-2.2106 0,-1.78918 -0.51224,-2.50828 -1.25655,-1.76398 -0.40526,0.40527 -0.3545,0.71364 0.7149,4.3429 1.24689,4.23161 1.83955,6.85364 1.85484,8.20614 0.005,0.47294 0.0532,0.85989 0.10631,0.85989 0.0531,0 0.63038,-0.92273 1.28281,-2.05052 z m -73.875229,1.02346 c 0,-0.25666 -0.360113,-1.21007 -0.800252,-2.11868 -0.440138,-0.90862 -1.040106,-2.68589 -1.333263,-3.9495 -0.84478,-3.64129 -1.051331,-4.30698 -1.290507,-4.15917 -0.123379,0.0763 0.07405,1.47883 0.438733,3.11684 0.920806,4.1359 0.95752,4.49263 0.522629,5.07813 -0.359991,0.48465 -0.425323,0.43446 -1.205455,-0.92605 -0.486602,-0.8486 -0.82657,-1.8182 -0.829063,-2.36451 -0.0023,-0.50932 -0.231299,-1.27048 -0.508832,-1.69146 -0.277533,-0.42099 -0.441255,-0.93052 -0.363826,-1.1323 0.159912,-0.41672 -0.683473,-5.13343 -0.976055,-5.45868 -0.261834,-0.29107 -1.18352,1.91492 -2.556781,6.11947 -0.633323,1.93906 -1.151496,3.56596 -1.151496,3.61533 0,0.24416 2.817959,1.75434 5.291667,2.83586 4.301014,1.88043 4.762501,1.98069 4.762501,1.03472 z m -25.154015,-2.85226 c 0.02811,-1.66429 0.703475,-4.93404 1.643084,-7.95488 l 0.841707,-2.70609 -1.113112,-1.58685 c -1.204827,-1.7176 -3.244096,-5.90995 -3.764755,-7.73962 -0.483472,-1.699 -0.631601,-1.70196 -1.235015,-0.0247 -1.050773,2.92077 -1.737857,6.35868 -2.051594,10.2654 l -0.169983,2.11667 1.323098,2.82134 c 0.727704,1.55174 1.948802,3.7486 2.713551,4.88191 1.516292,2.24705 1.774012,2.23664 1.813019,-0.0732 z m 85.520394,-1.43651 c 1.91133,-1.11627 6.88111,-5.66831 7.67317,-7.02818 0.42311,-0.72643 0.40832,-0.82718 -0.42123,-2.86953 -1.33927,-3.29731 -3.25093,-6.94361 -4.85499,-9.26042 -1.96858,-2.84329 -1.83621,-2.74182 -2.51227,-1.92591 -1.03141,1.24477 -5.03271,4.44746 -6.60679,5.28815 -0.83674,0.44689 -1.52135,0.95284 -1.52135,1.12434 0,0.17149 1.0047,2.62545 2.23266,5.45324 1.22797,2.82779 2.55926,6.3023 2.95844,7.72112 0.39918,1.41883 0.83222,2.57969 0.96232,2.57969 0.1301,0 1.07062,-0.48712 2.09004,-1.0825 z m -69.877063,-4.07687 c 0.688062,-2.0373 1.545253,-4.35902 1.904868,-5.15938 0.536445,-1.19392 0.683758,-2.04905 0.820433,-4.7625 l 0.166587,-3.30729 -1.596274,-1.01922 c -0.877951,-0.56057 -2.325333,-1.87026 -3.216403,-2.91042 -0.891071,-1.04016 -1.702185,-1.92507 -1.802475,-1.96648 -0.637418,-0.26317 -8.197303,12.48663 -8.197303,13.82481 0,1.03829 9.29529,9.22113 10.29571,9.06353 0.227463,-0.0358 0.863664,-1.50923 1.624857,-3.76305 z m 87.004103,-1.5875 c 0.009,-0.46388 -0.0359,-0.44756 -0.36737,0.13229 -0.20797,0.3638 -0.37329,1.01864 -0.36737,1.45521 l 0.0108,0.79375 0.35662,-0.92605 c 0.19614,-0.50932 0.36145,-1.16416 0.36737,-1.4552 z m -8.18623,-6.63806 c -0.17736,-1.72027 -0.24905,-4.16216 -0.15931,-5.42642 0.13453,-1.89521 0.091,-2.35856 -0.24815,-2.64001 -0.7309,-0.60659 -1.43098,-2.31027 -1.43098,-3.48235 0,-1.46703 -0.55173,-2.29126 -1.42235,-2.12483 -0.47103,0.09 -0.73084,-0.032 -0.95339,-0.44784 -0.16825,-0.31438 -0.40197,-0.53461 -0.51937,-0.48939 -0.1174,0.0452 -0.86588,1.04359 -1.66329,2.2186 l -1.44985,2.13637 1.56125,2.22925 c 2.25901,3.22559 4.31998,7.15151 5.8112,11.06974 0.16917,0.44449 0.32707,0.5543 0.51984,0.36152 0.19278,-0.19277 0.17893,-1.2269 -0.0456,-3.40464 z m -35.44052,2.52852 c 1.67349,-0.3191 3.14713,-0.67717 3.27475,-0.7957 0.27719,-0.25745 -0.31278,-3.63063 -0.67405,-3.85391 -0.13671,-0.0845 -0.91096,0.47285 -1.72056,1.23853 l -1.472,1.39216 -0.46397,-0.61509 c -0.28694,-0.38041 -0.62242,-0.55429 -0.87927,-0.45572 -0.64964,0.24928 -1.35272,1.50725 -1.2915,2.31074 0.034,0.44582 -0.0995,0.78884 -0.34329,0.8824 -0.55884,0.21445 -0.50075,0.76285 0.0642,0.60563 0.25466,-0.0709 1.83224,-0.38995 3.50573,-0.70904 z m -9.93944,-0.49363 c 0.28138,-0.11019 0.40031,-0.26913 0.26428,-0.3532 -0.3615,-0.22342 -2.76026,0.0899 -2.76026,0.36057 0,0.27805 1.78055,0.2728 2.49598,-0.007 z M 58.460288,98.55989 c 0.982662,-1.85539 2.868042,-4.98078 4.189734,-6.94531 l 2.403077,-3.57188 -1.662017,-2.77812 c -0.91411,-1.52797 -1.913495,-3.46274 -2.220857,-4.29948 -0.307361,-0.83675 -0.666244,-1.52136 -0.797517,-1.52136 -0.472173,0 -5.253015,5.46231 -6.831444,7.80521 -2.204291,3.27188 -2.199621,3.25587 -1.557343,5.33917 0.696862,2.26034 2.633602,6.43395 3.750232,8.08161 0.465902,0.68748 0.867881,1.25302 0.893286,1.25677 0.02541,0.004 0.850188,-1.51122 1.832849,-3.36661 z m 39.292962,2.51354 c 0.0161,-0.1819 0.009,-0.59127 -0.0168,-0.90972 -0.061,-0.76649 0.75225,-1.97907 1.26118,-1.88043 0.22182,0.043 0.59667,0.42715 0.83301,0.85368 0.57064,1.02987 1.01024,1.13551 1.22156,0.29354 0.13153,-0.52403 0.29175,-0.65057 0.67122,-0.53013 0.28177,0.0894 0.49846,0.0318 0.49846,-0.13252 0,-0.32926 -0.24846,-0.42884 -1.65152,-0.66196 -0.76427,-0.12698 -1.02742,-0.31336 -1.1539,-0.81729 -0.18636,-0.74252 -1.40073,-1.70962 -2.13022,-1.69647 -0.49556,0.009 -1.67895,0.84695 -1.67895,1.18894 0,0.10279 0.25061,0.12135 0.55692,0.0413 0.55969,-0.14636 2.3535,0.54312 2.3535,0.90461 0,0.10643 -0.2895,0.4118 -0.64334,0.6786 -0.82075,0.61887 -1.27893,2.99863 -0.57733,2.99863 0.23481,0 0.4401,-0.14883 0.45621,-0.33073 z m 24.84154,-1.05559 c 4.01574,-1.28857 6.87917,-2.53451 6.87917,-2.99328 0,-0.52442 -5.32987,-10.66512 -6.38955,-12.15686 -0.51687,-0.7276 -1.21759,-1.82893 -1.55716,-2.4474 -0.56138,-1.02244 -1.31371,-1.51489 -1.31371,-0.85989 0,0.14552 -0.24287,0.26458 -0.5397,0.26458 -0.29684,0 -0.98145,0.2234 -1.52136,0.49643 -0.5399,0.27304 -1.87461,0.7741 -2.96602,1.11346 -1.09141,0.33937 -2.03004,0.64781 -2.08584,0.68542 -0.0558,0.0376 0.12278,0.86497 0.39687,1.83857 0.43772,1.55483 0.7156,1.98841 2.28428,3.56422 1.00836,1.01294 1.78594,2.02383 1.78594,2.32181 0,0.29539 0.23299,0.60171 0.52917,0.69572 0.29104,0.0924 0.52916,0.27899 0.52916,0.4147 0,0.13572 0.17585,0.24676 0.39078,0.24676 0.57114,0 1.20379,1.10645 1.02455,1.79187 -0.16665,0.63726 -0.6084,0.7613 -1.06942,0.30028 -0.20068,-0.20068 -0.44375,-0.20633 -0.79478,-0.0185 -0.27812,0.14885 -0.63317,0.18964 -0.789,0.0907 -0.38368,-0.24374 -1.40796,-2.19352 -1.40796,-2.68015 0,-0.34002 -0.0529,-0.3384 -0.40368,0.0123 -0.36185,0.36185 -0.34853,0.5822 0.12846,2.12655 0.29268,0.94758 0.71962,2.66667 0.94876,3.8202 0.22914,1.15354 0.46743,2.25186 0.52954,2.44071 0.15467,0.47029 1.35551,0.23325 5.4115,-1.06823 z m -17.21996,0.1606 c 0.0606,-0.0535 -0.3193,-0.0972 -0.84428,-0.0972 -0.52499,0 -1.03281,0.12666 -1.12848,0.28146 -0.11844,0.19165 0.15096,0.22266 0.84428,0.0972 0.56003,-0.10134 1.06784,-0.228 1.12848,-0.28145 z M 49.439387,93.18769 c 0.5466,-1.52006 0.986945,-3.00186 0.978544,-3.29291 -0.125334,-4.34196 -0.107792,-7.80459 0.04222,-8.33437 l 0.187301,-0.66146 -0.388061,0.67621 c -0.478275,0.8334 -1.632442,4.88973 -2.123897,7.46445 -0.514811,2.69708 -1.058887,9.77235 -0.821256,10.67978 0.170289,0.65027 0.26535,0.43519 0.665009,-1.50462 0.256475,-1.24484 0.913537,-3.50703 1.460137,-5.02708 z m 82.731693,2.46178 c 1.9648,-1.14845 5.78288,-4.26181 6.55324,-5.34368 l 0.52777,-0.7412 -1.3591,-1.95157 c -1.49048,-2.14021 -10.2591,-11.0797 -10.86793,-11.0797 -0.20873,0 -0.60163,0.24545 -0.87312,0.54544 -0.27149,0.29999 -1.33174,1.15481 -2.35611,1.8996 -1.02437,0.74479 -1.96303,1.43927 -2.0859,1.54328 -0.12287,0.10401 0.63662,1.53868 1.68775,3.18814 1.05113,1.64947 3.05342,5.23393 4.44953,7.96546 1.39612,2.73153 2.55819,4.96642 2.5824,4.96642 0.0242,0 0.80786,-0.44648 1.74147,-0.99219 z m -17.67245,0.38273 c 0.4128,-0.30184 0.43434,-0.48341 0.17266,-1.45521 -0.23737,-0.88154 -0.41954,-1.1095 -0.88409,-1.10628 -0.82676,0.006 -1.42278,0.40088 -0.90459,0.59973 0.25262,0.0969 0.3415,0.38291 0.25677,0.82616 -0.25533,1.3357 0.37052,1.85858 1.35925,1.1356 z m -3.01634,-1.79179 c 0,-0.12539 -0.17859,-0.15944 -0.39687,-0.0757 -0.21828,0.0838 -0.39688,0.25488 -0.39688,0.38027 0,0.12538 0.1786,0.15944 0.39688,0.0757 0.21828,-0.0838 0.39687,-0.25488 0.39687,-0.38026 z M 74.41168,90.93472 c 1.642421,-2.96803 1.682085,-3.08479 1.384905,-4.07669 -0.216341,-0.72208 -0.225275,-1.20181 -0.0305,-1.63803 0.151491,-0.33928 0.661734,-2.10516 1.133873,-3.92417 0.655717,-2.52629 0.795522,-3.44788 0.592021,-3.90261 -0.146528,-0.32742 -0.362898,-0.59531 -0.480821,-0.59531 -0.313075,0 -6.334835,6.09497 -8.719989,8.82601 -1.382269,1.58272 -1.980895,2.46165 -1.843636,2.70692 0.880919,1.57411 5.320913,5.67751 6.126666,5.6622 0.08065,-0.002 0.907519,-1.37778 1.837485,-3.05832 z m 28.75131,-1.6115 c 0.55337,-0.21235 0.46618,-2.14423 -0.14736,-3.26489 l -0.50699,-0.92605 0.0366,3.43959 c 0.0201,1.89177 0.0814,2.86769 0.13627,2.16872 0.062,-0.79001 0.24414,-1.32629 0.48148,-1.41737 z m -1.52776,-1.21437 -0.0748,-2.97657 -2.11667,-0.18913 c -1.16417,-0.10403 -2.39962,-0.2589 -2.74544,-0.34417 -0.50464,-0.12443 -0.59606,-0.0697 -0.46302,0.27692 0.0912,0.23757 0.16575,0.76111 0.16575,1.16341 0,0.63949 0.23627,0.85299 1.87926,1.69815 1.0336,0.53168 2.04563,0.9667 2.24896,0.9667 0.25225,0 0.3697,0.32222 0.3697,1.01424 0,1.01354 0.15047,1.36701 0.58193,1.36701 0.12603,0 0.19548,-1.33945 0.15434,-2.97656 z m -44.679225,-6.4823 c 1.478444,-1.63711 2.772848,-2.97658 2.876453,-2.97661 0.103605,-3e-5 0.188373,-2.07227 0.188373,-4.60497 0,-2.99654 -0.09241,-4.55097 -0.264583,-4.45045 -1.878497,1.09672 -7.649992,7.44681 -7.905374,8.69789 -0.587778,2.87943 -0.938765,9.81379 -0.518028,10.23453 0.09656,0.0965 0.79645,-0.7468 1.555318,-1.87413 0.758869,-1.12733 2.589397,-3.38915 4.067841,-5.02626 z m 84.409015,5.03934 c 0.73596,-1.12105 1.33811,-2.24858 1.33811,-2.50562 0,-0.25705 -0.35719,-0.73143 -0.79375,-1.0542 -0.97139,-0.71818 -0.99,-1.13402 -0.10878,-2.43086 0.89606,-1.31867 0.70971,-2.14216 -0.60948,-2.69336 -0.53546,-0.22373 -1.13731,-0.34394 -1.33744,-0.26714 -0.20014,0.0768 -0.60471,0.0108 -0.89906,-0.14678 -0.43413,-0.23234 -0.50391,-0.45306 -0.36959,-1.16905 0.0948,-0.50547 0.0491,-0.95464 -0.10712,-1.05116 -0.17198,-0.10629 -0.2727,0.27697 -0.2727,1.0377 0,0.66343 -0.11042,1.20624 -0.24538,1.20624 -0.28253,0 -1.34212,-1.28125 -1.34212,-1.62288 0,-0.3788 -2.08163,-2.40172 -2.37106,-2.30418 -0.14787,0.0498 0.0691,0.45195 0.48219,0.89361 1.35171,1.44526 1.73731,2.64057 0.94937,2.94293 -0.22625,0.0868 -0.67138,-0.0773 -0.99219,-0.36575 -0.32002,-0.28777 -0.79021,-0.59675 -1.04487,-0.68663 -0.35631,-0.12575 -0.46302,-0.4642 -0.46302,-1.4685 0,-1.20844 -0.0679,-1.34512 -0.91638,-1.84576 -0.52732,-0.31112 -1.08326,-0.94006 -1.30942,-1.48134 -0.21617,-0.51737 -0.49216,-0.94067 -0.61331,-0.94067 -0.12115,0 -0.65813,0.92274 -1.19328,2.05052 -0.53516,1.12779 -1.1172,2.24475 -1.29342,2.48213 -0.27006,0.36379 -0.15742,0.57047 0.71676,1.31529 3.58514,3.05454 9.3374,9.20535 10.58662,11.32012 0.26759,0.45298 0.57308,0.82361 0.67887,0.82361 0.10579,0 0.79449,-0.91722 1.53045,-2.03827 z M 66.630663,86.17333 c 1.155467,-1.5149 7.539517,-8.14613 9.191103,-9.54697 1.30511,-1.10696 1.514027,-1.41113 1.517742,-2.2097 0.0082,-1.75589 -0.203254,-2.06464 -1.714657,-2.50402 -0.772991,-0.22472 -1.444962,-0.52551 -1.49327,-0.66843 -0.04831,-0.14293 -0.65422,-0.33733 -1.346471,-0.43201 -1.152589,-0.15764 -1.386668,-0.0876 -2.778125,0.83137 -2.359106,1.55802 -6.43707,4.74071 -7.574737,5.91178 -1.026539,1.05668 -1.02768,1.06028 -0.720923,2.27852 0.405781,1.61151 3.5184,7.28279 3.997075,7.28279 0.111513,0 0.526531,-0.4245 0.922263,-0.94333 z m 45.819947,-0.53498 c -0.27913,-0.81009 -0.50952,-1.05344 -1.05938,-1.11895 -0.38648,-0.0461 -0.70212,0.0135 -0.70142,0.13229 0.002,0.30324 1.85274,2.28666 1.9982,2.14119 0.0656,-0.0656 -0.0412,-0.58515 -0.2374,-1.15453 z m -3.34957,-0.37377 c 0,-0.14553 -0.18562,-0.26459 -0.41249,-0.26459 -0.22687,0 -0.3389,0.11906 -0.24897,0.26459 0.0899,0.14552 0.27556,0.26458 0.41249,0.26458 0.13694,0 0.24897,-0.11906 0.24897,-0.26458 z m 37.85277,-0.70709 c 0.14786,-0.3889 0.18805,-0.89491 0.0893,-1.12448 -0.14178,-0.32968 -0.22191,-0.27839 -0.3813,0.24407 -0.44246,1.45037 -0.20125,2.1777 0.29198,0.88041 z m -45.2611,-2.86479 c 0,-1.38245 -0.0919,-2.51354 -0.20428,-2.51354 -0.11235,0 -1.20625,1.0072 -2.43087,2.23822 -1.52484,1.5328 -2.10672,2.28008 -1.84624,2.37105 0.46751,0.16328 1.86103,0.31914 3.35691,0.37547 l 1.12448,0.0423 z m 1.48273,1.43538 c -0.15183,-0.94948 -0.11639,-1.06179 0.29691,-0.94102 0.25812,0.0754 1.18369,0.33264 2.05682,0.57158 0.87312,0.23893 1.7854,0.66267 2.02728,0.94163 0.25697,0.29637 0.61441,0.44019 0.8599,0.34599 0.60718,-0.233 0.51668,-0.89835 -0.1222,-0.89835 -0.73569,0 -1.83878,-0.60168 -2.60306,-1.41984 -0.52577,-0.56284 -0.72264,-0.62776 -1.17289,-0.38679 -0.44618,0.23878 -0.62472,0.18628 -1.01799,-0.29939 -0.57236,-0.70684 -0.24402,-1.59815 0.58873,-1.59815 0.29923,0 0.6512,-0.27582 0.81737,-0.64052 0.24125,-0.52948 0.19321,-0.77902 -0.27713,-1.43956 -0.49727,-0.69835 -1.50901,-1.31424 -1.7297,-1.05293 -0.0419,0.0497 -0.14425,1.84648 -0.22736,3.99291 -0.13265,3.42641 -0.10065,3.9026 0.26232,3.9026 0.33539,0 0.38087,-0.20346 0.241,-1.07816 z m 8.12343,0.39971 c 0.5666,-0.21742 -0.53323,-3.61147 -1.13005,-3.48732 -0.30209,0.0628 -0.38812,0.37042 -0.33537,1.1991 0.0542,0.85143 -0.0239,1.11459 -0.33073,1.11459 -0.40056,0 -0.56006,0.81175 -0.22529,1.14653 0.21507,0.21507 1.48716,0.23213 2.02144,0.0271 z m 3.64998,-0.91708 c 0.99209,-0.29546 1.86709,-0.63959 1.94443,-0.76474 0.0773,-0.12515 -0.26783,-0.30417 -0.76707,-0.39782 -0.65168,-0.12226 -1.06673,-0.42761 -1.47154,-1.08261 -0.31012,-0.50178 -0.89941,-1.15127 -1.30953,-1.4433 -0.80756,-0.57503 -1.1722,-1.46719 -1.19003,-2.91163 -0.009,-0.70324 -0.13586,-0.94424 -0.54053,-1.02433 -0.29104,-0.0576 -0.88183,-0.40148 -1.31287,-0.76418 -0.43104,-0.36269 -0.82154,-0.54595 -0.86778,-0.40724 -0.0646,0.19381 1.4701,4.84449 2.97072,9.00232 0.16015,0.44372 0.43619,0.42132 2.5442,-0.20647 z m 32.13683,-2.79072 c 0.0999,-0.66619 0.10947,-1.73776 0.0213,-2.38125 -0.1381,-1.00753 -0.0946,-1.17 0.31317,-1.17 0.26044,0 0.70465,0.17481 0.98713,0.38846 0.73228,0.55388 0.83541,0.50746 0.97425,-0.43854 0.14933,-1.01747 -0.49978,-2.26265 -2.00234,-3.84105 -1.16889,-1.22789 -1.7185,-1.26563 -1.10319,-0.0757 0.4265,0.82476 0.53858,2.37937 0.17153,2.37937 -0.36546,0 -0.61876,5.57482 -0.27227,5.99231 0.5046,0.60801 0.72181,0.40437 0.91045,-0.85356 z m -27.14384,0.35136 c -0.004,-0.18191 -0.36959,-0.74745 -0.81261,-1.25678 -0.87242,-1.00297 -0.88848,-0.92094 -0.11655,0.59532 0.50068,0.98346 0.94287,1.29825 0.92916,0.66146 z m 3.00242,-1.63244 c 0.8992,-0.64318 1.99153,-1.54338 2.4274,-2.00044 l 0.7925,-0.83102 -0.66021,-0.51094 c -0.44869,-0.34726 -0.8933,-0.46252 -1.3878,-0.35979 -0.42805,0.0889 -0.72761,0.0367 -0.72761,-0.12689 0,-0.15292 -0.38695,-0.37763 -0.85989,-0.49935 -0.75007,-0.19304 -0.87033,-0.3452 -0.9416,-1.19125 -0.0598,-0.7099 -0.28356,-1.11368 -0.8346,-1.50605 -0.41409,-0.29486 -0.80859,-0.53611 -0.87666,-0.53611 -0.0681,0 -0.19994,0.47625 -0.29302,1.05834 -0.0931,0.58208 -0.28689,1.05833 -0.43069,1.05833 -0.1438,0 -0.26145,0.48408 -0.26145,1.07573 0,0.59165 -0.11443,1.28952 -0.25427,1.55083 -0.19915,0.3721 0.009,0.85593 0.95847,2.23157 0.66701,0.96605 1.32564,1.75645 1.46363,1.75645 0.13799,0 0.98659,-0.52623 1.8858,-1.16941 z m -13.31405,-0.79784 c 0,-0.20886 -0.48864,-1.75667 -1.08586,-3.43958 -1.01329,-2.85531 -1.13266,-3.0601 -1.78594,-3.06388 -0.92007,-0.005 -1.27061,-0.25151 -1.60302,-1.12582 -0.19898,-0.52336 -0.45852,-0.72222 -0.94259,-0.72222 -0.58705,0 -0.66801,0.11224 -0.66801,0.92605 0,0.64676 -0.11969,0.92604 -0.39687,0.92604 -0.29547,0 -0.39688,0.31211 -0.39688,1.22147 0,1.18571 0.021,1.21745 0.7176,1.08429 0.57837,-0.11056 0.97356,0.093 2.03679,1.04889 0.72556,0.65233 1.44617,1.44075 1.60136,1.75203 0.27697,0.55555 1.85469,1.77248 2.29796,1.77248 0.124,0 0.22546,-0.17088 0.22546,-0.37975 z m 35.66501,-2.29172 c -0.0719,-1.79226 -0.12352,-1.95097 -0.60772,-1.86743 -0.77051,0.13294 -0.79794,0.22395 -0.35217,1.16879 0.29517,0.62563 0.33688,1.05515 0.1547,1.59307 -0.17666,0.52162 -0.15277,0.85297 0.0819,1.1357 0.56749,0.68379 0.80539,0.0161 0.72332,-2.03013 z m -83.674196,1.5926 c 0.306142,-0.49534 5.379232,-4.44219 7.814624,-6.07974 1.286364,-0.86495 2.571798,-1.57264 2.85652,-1.57264 1.5785,0 2.31122,-1.4927 2.359614,-4.80702 l 0.03344,-2.2903 -1.908237,0.53758 c -3.882692,1.09381 -6.598291,2.31371 -9.490766,4.26344 -1.724933,1.16273 -2.052042,1.5039 -2.199515,2.2941 -0.248985,1.33413 -0.441296,6.87752 -0.258568,7.45325 0.172518,0.54355 0.525922,0.63329 0.792887,0.20133 z m 38.859136,-0.15001 c 0.0918,-0.23933 0.009,-0.62628 -0.18512,-0.8599 -0.46289,-0.55842 -0.98358,-1.79431 -0.98358,-2.3346 0,-0.79117 0.78795,-1.38538 1.61715,-1.21954 0.72486,0.14497 0.7641,0.10571 0.7641,-0.76441 0,-0.84436 -0.0861,-0.94302 -1.08303,-1.24172 -1.04875,-0.31422 -1.06839,-0.34067 -0.62045,-0.83563 0.25441,-0.28113 0.62272,-0.51115 0.81844,-0.51115 0.19573,0 0.35587,-0.21461 0.35587,-0.47692 0,-0.35761 -0.34749,-0.55833 -1.38906,-0.80238 -0.76399,-0.179 -1.6397,-0.39169 -1.94604,-0.47264 -0.45468,-0.12014 -0.80701,0.19658 -1.91823,1.72437 -1.493811,2.0538 -1.617818,2.40882 -0.84139,2.40882 0.66382,0 1.03653,0.73764 0.80212,1.5875 -0.10034,0.3638 -0.12897,1.02769 -0.0636,1.47531 0.0776,0.53144 -0.0321,0.96483 -0.31626,1.24895 -0.40374,0.40374 -0.3914,0.44466 0.17129,0.56776 1.6454,0.35998 1.67016,0.34854 1.58464,-0.73227 -0.044,-0.55667 0.0555,-1.42291 0.22119,-1.92499 l 0.30127,-0.91286 0.46808,0.60207 c 0.25745,0.33114 0.55353,1.06596 0.65796,1.63294 0.19452,1.05611 0.84414,2.27642 1.21183,2.27642 0.11322,0 0.28099,-0.19581 0.37283,-0.43513 z m -7.254119,-1.65322 c 0,-0.26821 -0.805864,-0.63356 -0.990405,-0.44902 -0.0665,0.0665 -0.04244,0.2479 0.05348,0.4031 0.211087,0.34155 0.936921,0.37712 0.936921,0.0459 z M 54.869182,72.89057 c 0.915924,-1.05763 2.53772,-2.59118 3.603991,-3.40787 1.878874,-1.4391 2.466564,-2.33662 2.472225,-3.77555 8.11e-4,-0.20632 0.537868,-1.36718 1.193459,-2.57968 0.655592,-1.21251 1.080689,-2.20456 0.944661,-2.20456 -0.361218,0 -4.665376,5.05781 -6.529596,7.67291 -1.73154,2.42899 -4.052068,6.48241 -3.617223,6.31845 0.146942,-0.0554 1.016559,-0.96607 1.932483,-2.0237 z m 72.856198,0.93078 c 0.88841,-1.52524 1.82306,-4.09722 1.61264,-4.43768 -0.0943,-0.15254 -1.50124,-0.91465 -3.12659,-1.6936 -3.02199,-1.44827 -13.29358,-5.01592 -13.70653,-4.76071 -0.85457,0.52815 1.07697,2.80049 2.67971,3.15252 0.53086,0.11659 1.00934,0.46224 1.27099,0.91813 0.23079,0.40213 0.90285,1.03755 1.49347,1.41204 0.59061,0.3745 1.84733,1.28034 2.7927,2.01297 l 1.71885,1.33205 0.60696,-0.65458 c 0.71826,-0.77461 0.65995,-0.76652 1.68881,-0.23447 0.7696,0.39797 0.80491,0.4851 0.67021,1.65364 -0.11637,1.0095 -0.0417,1.34166 0.4112,1.82885 0.78764,0.8473 1.14402,0.74739 1.88758,-0.52916 z M 90.890531,72.16243 c -0.439269,-0.96409 -0.391334,-1.35563 0.284095,-2.32055 0.32693,-0.46705 0.615614,-0.88982 0.64152,-0.93948 0.157682,-0.30232 1.21604,0.37417 1.418503,0.90669 0.133583,0.35135 0.335122,0.6324 0.447865,0.62455 0.273077,-0.019 2.586236,-3.21541 2.586236,-3.57376 0,-0.1544 -0.46035,-0.68493 -1.023,-1.17895 l -1.023007,-0.8982 -1.887413,1.017 c -2.640015,1.42253 -5.983328,3.67378 -5.896094,3.97018 0.04015,0.13643 0.564551,0.4119 1.165332,0.61216 0.775656,0.25855 1.3809,0.74251 2.087724,1.66936 0.642906,0.84303 1.086258,1.21439 1.251979,1.04866 0.165722,-0.16572 0.146691,-0.49776 -0.05374,-0.93766 z m 45.897379,-0.77987 c -0.43782,-0.34911 -0.69937,-0.81818 -0.69937,-1.2543 0,-0.5702 -0.15539,-0.73077 -0.85617,-0.88469 -1.28038,-0.28122 -2.03637,-0.93607 -2.04593,-1.77223 -0.006,-0.48312 -0.14873,-0.7276 -0.42621,-0.7276 -0.33059,0 -0.37988,0.17311 -0.23591,0.82858 l 0.18198,0.82857 -0.95471,-0.17911 c -0.82755,-0.15524 -0.95471,-0.11136 -0.95471,0.32946 0,0.36044 0.7261,0.94186 2.49317,1.99636 1.37124,0.81829 2.73343,1.48781 3.02709,1.48781 0.29366,0 0.62228,0.14296 0.73027,0.31769 0.14708,0.23799 0.2269,0.22604 0.31811,-0.0476 0.067,-0.20091 -0.19295,-0.61623 -0.57761,-0.92295 z m 11.49223,-0.57911 c -0.15532,-0.55935 -0.28306,-1.38889 -0.28387,-1.84342 -9.6e-4,-0.53652 -0.34952,-1.30081 -0.99366,-2.17879 -0.54571,-0.74381 -1.0644,-1.35419 -1.15266,-1.3564 -0.0883,-0.002 -0.17412,0.32341 -0.19082,0.72359 -0.0167,0.40018 -0.0636,1.13919 -0.10412,1.64225 -0.0575,0.71315 0.0512,0.97772 0.49334,1.20095 1.02802,0.51902 1.43339,0.9887 1.27743,1.4801 -0.0928,0.29251 0.0675,0.69762 0.41295,1.04303 0.73722,0.73722 0.88846,0.53852 0.54141,-0.71131 z m -3.77785,0.64987 c 0.53044,-0.53043 0.35631,-0.74717 -0.34395,-0.4281 -0.36381,0.16576 -0.66146,0.40133 -0.66146,0.52349 0,0.32973 0.64113,0.2689 1.00541,-0.0954 z M 88.10328,67.30407 c 1.011667,-0.71047 2.569479,-1.6603 3.461804,-2.11075 1.907156,-0.96273 2.054163,-1.14097 1.603775,-1.94455 -0.186831,-0.33334 -0.359838,-0.64606 -0.38446,-0.69494 -0.06127,-0.12161 -6.800053,1.80673 -7.219333,2.06586 -0.271679,0.16791 -0.271552,0.56871 6.61e-4,2.09192 0.185201,1.03632 0.41805,1.88421 0.517443,1.88421 0.09939,0 1.008443,-0.58129 2.02011,-1.29175 z m 41.63526,0.64813 c 0,-0.20848 -0.20836,-0.44665 -0.46302,-0.52927 -0.25466,-0.0826 -0.91397,-0.85121 -1.46513,-1.70796 -0.81976,-1.27428 -1.40992,-1.80783 -3.24329,-2.93214 -2.49599,-1.53065 -4.03741,-1.91384 -9.04991,-2.24976 l -2.71198,-0.18174 v 0.74946 c 0,0.74032 0.067,0.77167 5.4901,2.57013 3.13862,1.04085 6.68002,2.42296 8.26823,3.22686 3.08661,1.56234 3.175,1.5917 3.175,1.05442 z m 5.55625,-0.67929 c 0,-0.14552 -0.18562,-0.26459 -0.41249,-0.26459 -0.22687,0 -0.3389,0.11907 -0.24896,0.26459 0.0899,0.14552 0.27555,0.26458 0.41249,0.26458 0.13693,0 0.24896,-0.11906 0.24896,-0.26458 z m -33.86666,-0.21167 c 0,-0.11642 -0.13416,-0.34582 -0.29813,-0.50979 -0.16841,-0.16841 -0.22378,-0.59437 -0.12725,-0.97896 0.14517,-0.57844 0.31934,-0.68127 1.15802,-0.68374 0.54293,-0.002 1.43363,-0.0767 1.97933,-0.16692 0.82908,-0.13703 0.99219,-0.0883 0.99219,0.29618 0,0.36976 0.14297,0.42441 0.72761,0.27814 0.40018,-0.10012 0.80875,-0.32139 0.90792,-0.49171 0.63282,-1.08672 0.99108,-1.31153 2.28881,-1.43623 1.14036,-0.10957 1.36733,-0.0599 1.36733,0.29916 0,0.67907 0.478,0.5032 0.91168,-0.33544 2.03603,-3.93725 -1.05601,-7.78176 -7.0328,-8.74429 -3.36165,-0.54138 -7.16134,0.60828 -9.27511,2.80635 -1.135548,1.18084 -1.537105,2.10274 -1.537105,3.52892 0,1.45882 0.30577,2.08042 1.731265,3.51946 1.44079,1.45448 2.19365,1.89351 4.15046,2.42033 1.64989,0.44419 2.05578,0.48339 2.05578,0.19854 z m 3.35022,-0.64823 c -0.0734,-0.1819 -0.13345,-0.0331 -0.13345,0.33073 0,0.3638 0.0601,0.51263 0.13345,0.33073 0.0734,-0.1819 0.0734,-0.47956 0,-0.66146 z M 65.592028,64.67089 c 2.098118,-1.06905 8.023997,-3.20738 8.909364,-3.21492 0.508994,-0.004 1.31377,-1.41874 2.088528,-3.67061 0.273096,-0.79377 0.496535,-1.45434 0.496532,-1.46794 -3e-6,-0.0136 -0.922738,-0.009 -2.050521,0.01 -2.343531,0.0395 -2.619257,0.11493 -6.666885,1.82342 -2.822493,1.19136 -3.021922,1.32711 -3.848844,2.61979 -1.507848,2.35715 -2.779579,4.93291 -2.779579,5.62975 v 0.67089 l 0.864599,-0.65946 c 0.47553,-0.36271 1.819593,-1.14606 2.986806,-1.74078 z m 12.960068,0.60539 c -0.007,-0.45417 0.222301,-0.81636 0.703762,-1.11148 0.649877,-0.39834 0.757098,-0.40035 1.190625,-0.0223 0.549887,0.47955 1.137891,0.36081 1.137891,-0.22979 0,-0.33616 0.305914,-0.38526 1.785938,-0.28665 1.534156,0.10222 2.30815,-0.0362 5.490104,-0.98183 3.699014,-1.0993 3.704282,-1.10199 3.787077,-1.94026 l 0.08291,-0.83943 -2.067285,0.0129 c -1.137006,0.007 -3.407923,0.16084 -5.046482,0.34162 l -2.979198,0.32868 -1.526391,1.51047 c -0.906947,0.89748 -1.757634,1.51046 -2.096202,1.51046 -0.785607,0 -1.053181,-0.9466 -0.454551,-1.60808 0.254759,-0.28151 0.41253,-0.5625 0.350603,-0.62443 -0.06193,-0.0619 -0.785966,0.0748 -1.608974,0.3039 -1.655587,0.46081 -1.793239,0.67291 -1.799352,2.77253 -0.0036,1.23975 -0.0028,1.24089 0.988575,1.34459 2.123439,0.22212 2.072021,0.23412 2.060951,-0.48097 z m 56.213534,-0.0776 c 0,-0.25095 -1.18057,-0.83931 -1.6661,-0.83034 -0.41441,0.008 0.90133,1.03885 1.33537,1.04657 0.1819,0.003 0.33073,-0.0941 0.33073,-0.21623 z m -2.09007,-2.37402 c -0.24862,-0.46454 -2.11781,-1.22169 -2.37676,-0.96274 -0.21479,0.21479 0.47345,0.76319 1.36963,1.09135 1.18187,0.43277 1.29953,0.41774 1.00713,-0.12861 z m -5.71514,-1.90178 c -0.0899,-0.14552 -0.28259,-0.26459 -0.42811,-0.26459 -0.14552,0 -0.191,0.11907 -0.10106,0.26459 0.0899,0.14552 0.28259,0.26458 0.42811,0.26458 0.14552,0 0.191,-0.11906 0.10106,-0.26458 z M 76.821874,60.51042 c 0,-0.22687 -0.119063,-0.33891 -0.264583,-0.24897 -0.145521,0.0899 -0.264584,0.27556 -0.264584,0.41249 0,0.13693 0.119063,0.24897 0.264584,0.24897 0.14552,0 0.264583,-0.18562 0.264583,-0.41249 z M 120.7473,59.73781 c -0.24609,-0.29652 -0.25394,-0.5946 -0.0324,-1.23011 0.55421,-1.58979 0.49647,-1.64102 -1.62584,-1.4424 -1.91527,0.17923 -6.60655,0.91711 -6.75133,1.06189 -0.0421,0.0421 0.043,0.39066 0.18894,0.77465 0.24606,0.64718 0.38664,0.70025 1.92564,0.72687 0.9131,0.0158 2.37457,0.11735 3.24769,0.22568 0.87313,0.10833 1.98903,0.21447 2.47979,0.23587 0.75952,0.0331 0.84397,-0.0193 0.56751,-0.35245 z M 87.57009,59.21406 c 4.671236,-0.24336 5.346885,-0.35949 5.6767,-0.97576 0.157689,-0.29464 0.226575,-0.59585 0.153078,-0.66934 -0.201634,-0.20164 -6.026907,-1.40562 -6.808435,-1.40719 -0.735565,-10e-4 -1.665828,0.84098 -1.944187,1.76068 -0.09512,0.31428 -0.34693,0.71581 -0.559576,0.89229 -0.488894,0.40575 -0.504871,0.88724 -0.02331,0.70245 0.199826,-0.0767 1.777404,-0.21309 3.505729,-0.30313 z m 36.55793,-1.53305 c 0.3844,-0.46317 -0.34947,-1.48728 -0.76675,-1.07 -0.30565,0.30565 -0.0888,1.40148 0.27729,1.40148 0.1179,0 0.33815,-0.14917 0.48946,-0.33148 z M 70.491521,56.35467 c 1.774592,-0.65011 2.354844,-0.98287 2.414876,-1.38489 0.06841,-0.45813 0.345412,-0.55037 2.063393,-0.68708 1.098376,-0.0874 2.241135,-0.043 2.559441,0.0994 0.316285,0.14152 1.010846,0.17555 1.543469,0.0756 0.773727,-0.14515 0.931329,-0.27151 0.783979,-0.62856 -0.452664,-1.09686 -0.373934,-1.25276 1.071318,-2.12152 1.404567,-0.8443 2.484962,-2.00893 2.162638,-2.33125 -0.08411,-0.0841 -1.105611,-0.0686 -2.270012,0.0345 -2.018629,0.17868 -2.286983,0.28452 -5.769901,2.27546 -3.683794,2.10577 -7.479675,4.81971 -7.704386,5.50842 -0.08617,0.2641 0.01413,0.32077 0.34383,0.19426 0.256023,-0.0983 1.516633,-0.5637 2.801355,-1.03435 z m 45.620979,0.22296 c 1.45521,-0.22776 3.02576,-0.41481 3.49012,-0.41566 0.46435,-8.6e-4 0.91786,-0.12063 1.0078,-0.26615 0.0899,-0.14552 -0.0179,-0.26458 -0.23966,-0.26458 -0.22175,0 -0.53062,-0.23813 -0.68638,-0.52917 -0.15576,-0.29104 -0.44425,-0.52916 -0.64108,-0.52916 -0.19683,0 -0.97905,-0.4273 -1.73827,-0.94955 l -1.38039,-0.94954 -3.01492,1.39415 c -1.65821,0.76678 -3.01493,1.45329 -3.01493,1.52558 0,0.0723 0.38696,0.46995 0.8599,0.88367 0.95063,0.8316 0.7143,0.82717 5.35781,0.10041 z M 95.03216,56.159 c 0.33852,-0.28214 0.54437,-0.62807 0.45743,-0.76873 -0.0869,-0.14067 -0.823217,-0.63632 -1.636183,-1.10145 -1.440326,-0.82407 -1.514849,-0.83748 -2.9147,-0.5242 -1.584089,0.3545 -3.167091,1.45092 -2.475166,1.71434 0.512791,0.19523 5.036862,1.15223 5.55625,1.17534 0.218282,0.01 0.673849,-0.21317 1.012369,-0.4953 z m 17.37617,-2.83834 c 2.22104,-1.11101 2.03372,-0.95716 1.82562,-1.49943 -0.14721,-0.38365 -0.23151,-0.39506 -0.60154,-0.0815 -0.23668,0.2006 -0.82148,0.51958 -1.29957,0.70885 -0.74918,0.2966 -1.00965,0.28081 -1.88593,-0.11433 -1.32267,-0.59645 -1.85639,-0.46763 -2.59333,0.62592 -0.78223,1.16074 -0.76197,1.45323 0.12298,1.77553 0.81378,0.29638 1.35727,0.12284 4.43177,-1.41509 z M 97.93089,54.4251 98.91458,54.01271 97.67321,52.8376 c -1.22771,-1.16218 -1.26191,-1.17511 -3.108851,-1.17511 -2.710029,0 -2.51046,0.60774 0.825911,2.51514 1.35683,0.7757 1.29499,0.76967 2.54062,0.24747 z m 8.87996,-1.48716 c 0.31002,-0.53542 0.5011,-1.03607 0.42462,-1.11255 -0.0765,-0.0765 -0.61075,0.0289 -1.18726,0.23428 -0.57652,0.20534 -1.43516,0.37857 -1.90811,0.38496 -0.67684,0.009 -0.85989,0.12318 -0.85989,0.53574 0,0.32951 0.22105,0.57129 0.59531,0.65115 0.32742,0.0699 0.83344,0.17863 1.12448,0.2417 0.94561,0.2049 1.23816,0.0538 1.81085,-0.93528 z m -5.31658,0.67139 c 0.61299,-0.10132 0.99219,-0.31008 0.99219,-0.54623 0,-0.28828 -0.29685,-0.36399 -1.20761,-0.30798 -1.29581,0.0797 -1.81174,-0.30686 -1.54665,-1.15878 0.12338,-0.39648 -0.0376,-0.46302 -1.12057,-0.46302 H 97.34698 L 98.65,52.45624 c 0.71666,0.7276 1.42656,1.32161 1.57755,1.32 0.151,-0.002 0.72102,-0.0767 1.26672,-0.16691 z"
       id="path3" /></g></svg>
