<?xml version="1.0" encoding="utf-8"?>
<!-- Generator: Adobe Illustrator 17.0.0, SVG Export Plug-In . SVG Version: 6.00 Build 0)  -->
<!DOCTYPE svg PUBLIC "-//W3C//DTD SVG 1.1//EN" "http://www.w3.org/Graphics/SVG/1.1/DTD/svg11.dtd">
<svg version="1.1" id="Layer_1" xmlns="http://www.w3.org/2000/svg" xmlns:xlink="http://www.w3.org/1999/xlink" x="0px" y="0px"
	 width="283.46px" height="283.46px" viewBox="0 0 283.46 283.46" enable-background="new 0 0 283.46 283.46" xml:space="preserve">
<polygon fill="#010101" points="32.481,34.069 30.051,35.537 29.35,36.429 28.632,38.375 26.576,37.891 24.506,38.31 22.099,38.272 
	17.976,38.056 11.782,38.257 6.608,39.226 5.569,39.66 11.67,45.18 12.679,46.551 12.948,51.222 12.896,54.383 14.57,57.271 
	16.274,58.352 18.646,60.648 19.643,62.922 20.264,67.148 22.994,68.696 24.338,70.825 26.366,73.266 27.677,77.502 28.97,82.942 
	30.679,83.872 31.358,84.485 32.042,84.797 34.465,84.081 37.225,83.822 42.41,82.696 45.864,82.145 48.634,81.132 49.359,78.734 
	47.999,77.51 46.3,75.979 43.927,73.384 42.935,70.66 44.294,71.884 47.353,74.64 48.048,74.198 47.397,71.629 47.428,69.522 
	48.101,70.586 49.114,71.956 50.482,72.578 51.2,70.631 51.553,70.034 52.577,70.652 54.289,71.279 55.989,72.809 55.281,74.154 
	53.546,75.032 52.158,75.764 50.425,76.492 51.098,77.555 50.738,78.604 51.065,79.813 51.041,81.469 53.454,81.354 54.472,82.422 
	53.777,82.864 53.421,83.611 59.628,83.249 58.274,81.574 60.368,79.647 61.408,79.21 61.386,80.715 61.709,82.225 63.399,84.507 
	65.794,85.746 70.587,87.92 71.596,89.741 72.266,91.105 73.294,91.571 75.705,91.604 77.793,90.127 80.223,88.805 83.675,88.399 
	87.478,87.396 88.84,88.618 88.478,89.969 89.153,91.031 90.539,90.447 91.937,88.96 95.769,85.697 97.519,83.612 96.497,82.695 
	93.418,81 90.346,78.852 89.002,76.275 88.337,74.46 89.05,72.663 88.723,71.303 86.683,69.319 84.294,67.782 83.979,65.52 
	84.706,62.669 86.799,60.589 86.47,59.381 84.4,59.805 80.965,59.307 79.234,60.037 79.21,61.843 81.254,63.376 79.851,65.314 
	78.802,66.504 77.434,65.883 77.106,64.675 74.707,63.889 73.701,61.918 72.35,60.093 70.639,59.317 69.269,58.846 68.963,56.132 
	68.642,54.471 68.336,51.757 69.037,50.864 70.412,50.883 70.429,49.679 70.119,47.266 68.774,44.989 67.762,43.62 66.392,43.15 
	65.357,43.436 65.038,41.625 64.365,40.562 63.003,39.639 62.01,36.916 59.975,34.929 58.295,32.196 59.024,29.346 57.669,27.972 
	57.688,26.617 56.322,25.996 56.348,24.189 53.972,22.198 52.961,20.829 52.287,19.916 51.267,19.148 49.206,19.118 44.722,20.255 
	41.586,23.068 39.152,24.988 37.731,27.977 36.673,29.768 37.003,30.676 35.612,31.708 "/>
<polygon fill="#010101" points="15.209,197.828 15.151,200.084 16.141,201.615 17.493,202.402 17.798,203.915 19.101,206.658 
	21.482,207.471 24.21,208.142 25.902,209.087 28.28,210.05 31.012,210.569 32.708,211.364 33.017,212.727 34.725,213.07 
	35.377,214.441 36.03,215.812 37.022,217.342 38.704,218.738 40.74,219.691 41.397,220.911 42.433,220.636 42.802,219.591 
	43.492,219.457 44.495,220.535 46.89,220.894 52.354,222.08 55.098,222.145 59.205,222.695 65.671,225.105 66.375,224.369 
	67.082,223.482 68.801,223.372 69.172,222.176 71.612,220.577 72.666,219.547 73.74,217.615 76.533,215.572 78.244,215.762 
	78.955,214.724 78.643,213.362 77.298,212.127 79.034,211.264 81.092,211.311 81.462,210.115 81.53,207.106 81.599,204.097 
	81.321,201.231 81.421,196.868 83.851,195.569 86.043,189.598 87.455,187.823 87.899,183.318 87.936,181.663 86.583,180.88 
	86.278,179.217 85.627,177.697 84.99,175.576 84.312,175.26 82.298,173.408 81.326,170.977 78.622,169.41 76.225,169.355 
	74.195,168.255 72.508,167.162 71.457,168.191 69.72,169.204 68.344,169.473 66.657,168.38 63.233,168.3 60.505,167.784 
	58.084,168.78 57.374,169.817 58.03,171.036 56.657,171.154 55.309,170.219 53.612,169.576 52.246,169.393 51.929,168.332 
	50.924,167.405 49.219,167.062 48.167,168.091 46.797,168.057 44.725,168.76 43.658,170.389 40.193,171.96 37.395,174.3 
	33.223,176.756 29.433,177.564 25.986,178.381 24.913,180.161 24.559,180.603 23.52,181.029 23.494,182.082 23.46,183.436 
	23.075,185.082 20.951,187.737 17.068,192.155 15.339,192.713 15.647,194.076 15.597,196.031 "/>
<polygon fill="#010101" points="183.399,15.944 181.676,15.482 180.997,13.521 179.277,12.607 176.869,11.387 175.491,11.077 
	174.12,9.563 173.09,8.803 172.054,8.796 171.704,9.547 170.321,9.989 168.596,9.827 167.562,9.67 166.176,10.564 165.822,11.766 
	164.778,13.114 162.706,13.25 161.307,15.8 159.9,19.554 159.179,23.915 158.465,27.222 159.833,29.039 160.154,32.504 
	164.261,38.103 167.69,41.891 169.401,44.462 171.475,44.325 174.573,46.302 178.025,46.927 180.088,48.596 182.155,49.813 
	183.885,49.523 184.935,47.271 187.015,46.38 189.089,46.241 190.812,47.155 191.843,48.215 192.531,48.67 193.207,51.384 
	193.189,54.546 194.21,57.413 195.534,67.96 195.519,70.67 194.128,71.867 195.846,73.984 196.529,75.644 200.66,79.582 
	206.891,79.313 208.624,78.72 211.043,79.485 212.426,79.642 215.882,80.563 218.657,79.371 223.166,76.983 230.447,73.551 
	233.216,73.412 236.328,73.726 241.518,73.896 249.49,69.709 253.641,69.723 256.422,65.215 260.23,64.172 263.012,59.061 
	263.721,52.89 260.285,45.954 253.035,43.523 248.205,41.097 243.025,40.326 242.339,38.968 241.311,36.857 239.589,35.345 
	238.895,36.245 238.204,36.243 236.477,36.085 236.138,34.578 234.418,32.765 231.662,30.947 230.289,28.984 229.258,27.775 
	228.226,26.867 227.543,25.057 225.132,23.541 223.058,24.134 222.715,23.531 222.372,23.077 222.027,23.076 221.337,22.922 
	219.27,22.009 216.854,21.697 214.437,21.685 212.02,21.824 209.944,22.717 205.092,26.155 203.363,26.597 199.218,26.726 
	197.144,27.166 194.036,27.148 192.644,28.947 189.88,29.232 188.17,26.362 187.148,23.947 185.78,21.831 184.064,20.014 
	184.076,18.056 "/>
<polygon fill="#010101" points="272.989,173.165 265.312,169.73 257.626,162.68 255.176,158.773 253.074,154.564 253.749,147.786 
	251.651,144.48 247.466,141.481 241.559,144.207 237.731,144.367 237.02,137.895 237.347,129.612 237.332,123.288 233.146,117.576 
	225.136,109.613 218.179,105.109 200.796,93.839 187.944,86.922 177.529,83.311 171.975,81.203 166.769,80.9 163.298,81.802 
	160.522,79.391 156.706,77.732 154.28,74.568 150.465,72.456 144.916,70.191 142.493,66.123 142.148,64.617 141.803,63.412 
	141.111,62.507 136.95,61.748 127.244,59.472 122.042,59.461 119.957,61.264 117.169,66.828 117.157,71.948 117.491,77.52 
	119.557,84.602 124.748,92.593 127.174,95.007 128.21,98.021 127.511,100.128 126.459,105.095 124.374,105.09 120.892,108.847 
	117.75,114.863 116.008,116.666 113.214,121.929 106.95,124.321 104.859,125.972 104.154,128.981 102.759,130.633 99.622,132.732 
	96.483,135.432 94.732,139.191 93.325,143.704 96.772,153.803 99.893,157.728 101.977,159.39 104.752,163.313 106.132,167.834 
	107.167,171.45 108.9,174.768 108.542,178.23 109.927,181.395 111.316,183.356 112.354,186.521 114.775,194.055 116.507,199.028 
	118.59,202.797 118.93,206.712 115.386,229.739 113.62,237.715 115,244.493 116.038,248.711 118.134,249.318 119.175,252.181 
	119.868,255.193 122.662,255.952 128.951,257.621 132.791,260.187 139.777,264.564 145.717,267.884 148.861,270.447 
	148.857,273.909 150.256,274.664 153.756,271.506 156.206,269.249 158.656,266.843 161.108,260.22 165.655,255.555 168.452,252.546 
	168.104,246.824 169.153,244.265 175.791,237.943 177.887,237.19 185.569,232.823 187.663,231.166 191.154,229.056 193.248,228.001 
	196.39,227.547 199.18,224.082 203.714,220.765 207.202,218.653 210.342,217.595 214.181,217.74 220.117,219.236 227.791,217.113 
	236.509,214.384 241.036,210.909 246.615,209.539 246.61,207.732 252.883,205.907 262.27,196.692 268.886,194.109 275.478,185.953 
	277.56,183.536 277.891,179.318 276.136,176.013 "/>
</svg>
