<?xml version="1.0" encoding="utf-8"?>
<!-- Generator: Adobe Illustrator 17.0.0, SVG Export Plug-In . SVG Version: 6.00 Build 0)  -->
<!DOCTYPE svg PUBLIC "-//W3C//DTD SVG 1.1//EN" "http://www.w3.org/Graphics/SVG/1.1/DTD/svg11.dtd">
<svg version="1.1" id="Layer_2" xmlns="http://www.w3.org/2000/svg" xmlns:xlink="http://www.w3.org/1999/xlink" x="0px" y="0px"
	 width="283.46px" height="283.46px" viewBox="0 0 283.46 283.46" enable-background="new 0 0 283.46 283.46" xml:space="preserve">
<path d="M223.806,178.969c-6.711-2.89-12.76-6.805-18.082-11.895c3.693,4.948,8.184,9.062,12.966,12.958
	c-1.702-0.03-3.216-0.787-5.033-1.308c1.013,2.226,2.092,4.219,2.647,6.42c0.547,2.168,0.98,4.341,0.714,6.672
	c-6.073-8.813-13.09-16.738-21.154-23.964c3.158,8.158,9.449,13.775,14.989,20.034c-2.372-1.091-4.885-1.719-7.288-2.654
	c-2.485-0.967-4.565-2.589-6.687-4.18c1.762,2.75,4.136,4.941,6.51,7.115c2.36,2.162,4.912,4.079,7.852,5.413
	c-12.91-2.052-23.971-6.929-29.922-19.723c-1.367,1.366-0.529,3.037-0.746,4.516c-0.63-0.075-0.342-0.726-0.778-0.917
	c-0.066,0.036-0.207,0.066-0.265,0.152c-0.835,1.236-1.029,2.521-0.616,4.007c0.96,3.453,2.217,6.775,3.916,9.93
	c0.138,0.257,0.248,0.529,0.263,0.861c-2.392-2.44-4.203-5.291-5.942-8.404c-0.929,1.465-1.074,2.995-1.416,4.444
	c-0.2,0.848-0.231,1.746-0.255,2.624c-0.054,1.99,0.465,3.683,1.846,5.3c4.721,5.529,6.985,12.043,7.057,19.3
	c0.05,5.064,0.028,10.13,0.009,15.194c-0.004,1.082,0.11,2.148,0.653,3.064c0.778,1.314,1.025,2.697,0.929,4.181
	c-0.19,2.943,1.013,5.527,2.237,8.055c1.517,3.133,2.672,6.307,2.589,9.853c-0.029,1.251,0.755,2.331,1.049,3.526
	c0.327,1.33,0.347,2.283-0.733,3.629c-1.195,1.489-2.72,1.677-4.103,2.258c-0.991,0.416-2.327-0.099-3.439,0.586
	c-0.386,0.238-0.704-0.202-0.859-0.603c-0.153-0.397-0.308-0.792-0.513-1.318c-0.418,1.934-1.396,2.621-2.826,2.159
	c-0.687-0.222-1.066-0.662-0.952-1.373c0.277-1.727,0.198-3.42-0.321-5.092c-0.038-0.123-0.042-0.264-0.033-0.394
	c0.488-6.389-0.922-12.698-0.822-19.075c0.019-1.213-0.37-2.429-0.517-3.65c-0.569-4.714-0.993-9.45-2.934-13.883
	c-2.174-4.963-4.276-9.929-8.024-14.021c-1.404-1.533-2.799-3.172-3.743-5.078c-1.622-3.277-1.265-6.772-1.023-10.243
	c0.099-1.42,0.259-2.836,0.41-4.446c-2.218,2.324-2.078,4.917-1.787,7.583c0.972,8.913,1.024,17.804-0.185,26.726
	c-0.737,5.438-1.087,10.941-1.183,16.439c-0.045,2.549,0.121,5.105,1.204,7.5c0.177,0.391,0.364,0.888,0.273,1.272
	c-0.538,2.277,0.149,4.294,1.011,6.366c0.874,2.101,0.32,3.965-1.581,5.358c-1.145,0.839-1.625,2.052-1.731,3.424
	c-0.044,0.569-0.07,1.155,0.015,1.715c0.58,3.81-1.072,6.958-2.959,10.026c-0.794,1.292-2.767,1.96-4.499,1.299
	c-1.411-0.539-2.906-0.545-4.304-0.754c-3.339-0.5-4.475-3.816-3.068-6.041c1.938-3.064,3.339-6.389,4.825-9.676
	c1.011-2.238,1.648-4.551,1.558-7.023c-0.053-1.466,0.092-2.897,0.519-4.305c0.139-0.459,0.224-0.947,0.251-1.426
	c0.407-7.233,0.06-14.39-1.466-21.518c-1.649-7.701-2.721-15.499-3.098-23.393c-0.232-4.845-0.033-9.685-0.199-14.525
	c-0.018-0.519-0.054-1.037-0.081-1.53c-0.586-0.168-0.428,0.58-0.958,0.489c-0.517-2.653-1.041-5.349-1.566-8.044
	c0.308,7.537-2.118,14.051-6.932,19.749c1.732-8.325,1.854-16.657,0.712-25.032c-0.546,2.443-0.794,4.94-1.588,7.356
	c-0.265-2.533-0.303-5.082-0.773-7.989c-0.726,3.846-1.738,7.193-3.836,10.176c0.2-1.206,0.419-2.41,0.597-3.619
	c1.018-6.915,0.425-13.701-1.749-20.335c-2.931-8.945-2.1-17.657,1.208-26.35c3.313-8.704,8.988-15.425,16.435-20.825
	c1.538-1.115,3.102-2.142,4.784-3.025c3.784-1.987,5.253-7.142,3.093-10.824c-0.868-1.479-1.864-2.883-2.803-4.32
	c-0.462-0.707-1.036-1.285-1.756-1.753c-1.7-1.105-2.763-2.698-3.258-4.646c-0.205-0.81-0.608-1.174-1.4-0.88
	c-1.463,0.543-2.143-0.867-3.204-1.301c-0.526-0.215,0.005-0.764,0.413-0.939c0.864-0.369,1.753-0.682,2.915-1.126
	c-1.862-0.499-3.298-0.876-4.996-0.339c-6.292,1.989-12.62,3.875-18.98,5.631c-2.655,0.733-5.317,1.53-8.137,1.611
	c-2.867,0.082-5.447-0.84-8.056-1.798c-6.155-2.261-12.324-4.481-18.484-6.727c-0.474-0.173-0.932-0.246-1.416-0.09
	c-1.924,0.619-3.704,0.234-5.48-0.638c-3.99-1.96-8.093-3.494-12.469-4.547c-2.483-0.597-5.239-0.948-7.504-2.542
	c-1.287-0.906-1.394-1.074-0.099-1.93c-0.358-1.451-0.045-1.997,1.553-1.793c2.585,0.331,5.07-0.537,7.62-0.355
	c0.299,0.021,0.623,0.03,0.913-0.295c0.162-0.63-0.661-1.359-0.009-2.04c0.583-0.141,0.921,0.277,1.319,0.517
	c0.49,0.295,0.941,0.724,1.521,0.764c3.457,0.242,6.111,2.336,8.993,3.883c1.61,0.865,3.339,1.353,5.049,1.916
	c7.774,2.558,15.805,3.912,23.925,4.457c6.922,0.465,13.403-1.422,19.406-4.993c3.439-2.046,7.023-3.846,10.54-5.76
	c2.168-1.18,4.583-1.791,6.752-2.981c1.864-1.022,3.645-2.122,4.989-3.808c0.218-0.274,0.414-0.572,0.582-0.88
	c1.507-2.776,1.284-3.577-1.416-5.145c-3.944-2.29-5.248-5.276-3.688-9.555c1.013-2.777,0.846-5.035-0.476-7.771
	c-4.08-8.44-3.153-16.657,2.197-24.349c1.308-1.88,2.841-3.566,4.53-5.136c3.695-3.432,7.965-4.019,12.66-2.836
	c0.422,0.106,0.824,0.355,1.28,0.21c3.752-1.192,6.681,0.515,9.449,2.712c0.72,0.571,1.394,0.97,2.347,1.232
	c1.311,0.36,2.702,1.177,2.681,3.151c0.716-0.957,1.799-1.474,2.492-1.105c0.953,0.506,1.19,1.725,0.687,3.07
	c2.233-0.381,3.134,1.111,3.546,2.637c0.303,1.126,0.734,2.404,0.069,3.725c-0.72,1.43-2.338,0.741-3.41,1.683
	c1.065,0.56,1.418,1.483,1.825,2.388c0.511,1.136,0.333,2.117-0.701,2.774c-1.567,0.996-2.11,2.084-1.47,4.039
	c0.799,2.438,1.475,5,0.91,7.648c-0.344,1.61-1.162,3.036-1.809,4.526c-0.655,1.508-1.157,3.03-1.181,4.702
	c-0.018,1.223,0.435,2.192,1.188,3.12c2.296,2.829,5.294,3.596,8.757,3.118c1.375-0.19,2.734-0.023,4.037,0.415
	c3.309,1.113,4.616,3.194,4.214,6.677c-0.248,2.147-0.63,4.273-1.325,6.323c-0.506,1.491-0.468,2.872,0.221,4.334
	c0.992,2.109,1.909,4.266,2.664,6.469c0.531,1.548,1.532,2.504,2.884,3.245c0.965,0.529,1.925,1.069,2.856,1.655
	c2.376,1.495,2.96,4.226,1.338,6.522c-1.114,1.577-2.526,2.855-4.462,3.553c0.744-0.931,1.521-1.837,2.224-2.797
	c1.282-1.751,0.786-3.433-1.268-4.358c-0.541,0.525-0.247,1.145-0.162,1.722c0.419,2.824-0.765,4.576-3.532,5.27
	c-4.336,1.088-8.561,0.83-12.638-1.049c-1.292-0.595-2.097-0.449-3.087,0.771c-0.975,1.2-1.629,2.407-2.034,3.862
	c-0.9,3.227-1.745,6.457-2.068,9.806c-0.252,2.616,0.203,4.989,2.143,6.922c0.341,0.34,0.69,0.707,0.91,1.127
	c1.672,3.193,4.71,5.004,7.285,7.287c4.877,4.323,7.639,9.896,9.498,16.029c1.355,4.472,2.331,9.035,3.351,13.583
	c1.456,6.495,4.576,12.04,8.953,16.972c2.663,3,5.427,5.893,8.427,8.557c0.124,0.11,0.212,0.26,0.317,0.391
	C223.944,178.767,223.875,178.868,223.806,178.969z M194.624,63.431c0.453-1.214,0.572-2.157,0.546-3.117
	c-0.041-1.487-0.784-2.268-2.261-2.376c-2.053-0.15-4.083,0.638-6.179,0.085C189.238,59.963,192.249,61.001,194.624,63.431z
	 M189.211,77.916c0.285,1.614,0.534,2.991,0.769,4.371c0.065,0.381,0.24,0.688,0.607,0.792c1.276,0.36,2.533,0.776,3.981,1.546
	C193.585,82.788,190.523,78.973,189.211,77.916z M153.19,48.244c-1.29,1.635-0.931,3.316,1.007,4.644
	C153.997,51.237,153.982,49.719,153.19,48.244z"/>
</svg>
