<?xml version="1.0" encoding="utf-8"?>
<!-- Generator: Adobe Illustrator 17.0.0, SVG Export Plug-In . SVG Version: 6.00 Build 0)  -->
<!DOCTYPE svg PUBLIC "-//W3C//DTD SVG 1.1//EN" "http://www.w3.org/Graphics/SVG/1.1/DTD/svg11.dtd">
<svg version="1.1" id="Layer_1" xmlns="http://www.w3.org/2000/svg" xmlns:xlink="http://www.w3.org/1999/xlink" x="0px" y="0px"
	 width="283.46px" height="283.46px" viewBox="0 0 283.46 283.46" enable-background="new 0 0 283.46 283.46" xml:space="preserve">
<path fill="#010101" d="M91.623,194.734c0.621-1.377,12.592,6.008,14.222,4.993c1.34-0.831,0.445-18.404,1.327-18.301
	c0.882,0.106,6.097,18.141,7.389,18.71c1.261,0.555,17.147-4.771,17.439-3.698c0.322,1.18-10.63,7.315-10.603,8.454
	c0.038,1.394,16.438,10.464,15.947,12.07c-0.536,1.739-19.346-7.374-21.018-6.229c-1.337,0.919,1.212,16.625,0.246,17.071
	c-1.064,0.488-6.298-14.387-7.338-14.585c-1.037-0.2-10.482,4.398-10.598,3.951c-0.306-1.191,6.136-6.504,5.84-7.307
	c-0.296-0.804-11.551-2.511-11.536-3.593c0.017-1.075,9.97-0.167,10.159-1.297C103.406,203.143,91.081,195.931,91.623,194.734
	 M89.584,201.566c-0.424,1.869-29.695,0.816-29.831,2.695c-0.133,1.831,35.087,5.31,36.669,8.956
	c1.579,3.646-25.717,19.365-25.236,21c0.671,2.262,31.454-14.039,35.207-11.748c3.753,2.29,19.881,46.534,22.7,45.051
	c2.145-1.128-11.289-48.861-9.053-51.152c3.433-3.513,73.315,43.598,74.575,39.998c1.857-5.316-64.844-47.72-64.946-53.706
	c-0.083-4.756,56.913-25.932,56.713-27.926c-0.273-2.693-61.986,20.127-66.854,17.269c-5.561-3.264-21.436-71.079-23.201-70.56
	c-1.011,0.297,8.789,69.111,4.83,71.577c-3.524,2.193-52.898-30.047-53.303-28.491C47.497,165.908,89.998,199.746,89.584,201.566"/>
<path fill="#010101" d="M226.411,8.943c-2.49-1.076-4.708-1.453-7.628-0.859c-4.783,0.974-26.019,33.018-63.674,96.249
	c-23.61,39.537-34.873,62.098-33.784,67.687c0.612,3.153,2.314,4.459,5.111,3.914c0.796-0.156,1.582-0.382,2.355-0.681
	c2.727-10.493,9.046-24.362,18.961-41.606c8.556-13.558,17.008-27.097,25.366-40.622c10.564-17.071,23.349-35.545,38.349-55.413
	c6.478-8.248,12.855-16.476,19.138-24.69c-0.026-0.138,0.2-0.553-0.29-1.503C230.049,10.903,228.902,10.02,226.411,8.943"/>
</svg>
