<?xml version="1.0" encoding="iso-8859-1"?>
<!-- Generator: Adobe Illustrator 17.0.0, SVG Export Plug-In . SVG Version: 6.00 Build 0)  -->
<!DOCTYPE svg PUBLIC "-//W3C//DTD SVG 1.1//EN" "http://www.w3.org/Graphics/SVG/1.1/DTD/svg11.dtd">
<svg version="1.1" id="Layer_1" xmlns="http://www.w3.org/2000/svg" xmlns:xlink="http://www.w3.org/1999/xlink" x="0px" y="0px"
	 width="283.46px" height="283.46px" viewBox="0 0 283.46 283.46" style="enable-background:new 0 0 283.46 283.46;"
	 xml:space="preserve">
<circle style="display:none;fill:#FFF200;" cx="140.633" cy="135.893" r="127.219"/>
<g id="Symbol_1_">
	<path d="M128.239,76.808c0.526-18.658,5.316-35.92,14.735-51.92c0.313-0.533,0.589-1.134,1.033-1.535
		c1.214-1.091,2.509-2.093,3.773-3.13c0.543,1.386,1.074,2.779,1.634,4.159c0.987,2.434,1.535,5.206,3.066,7.231
		c5.601,7.407,11.201,14.871,17.468,21.7c3.587,3.908,8.539,6.538,12.721,9.936c1.337,1.087,3.029,2.83,2.977,4.212
		c-0.047,1.248-2.078,2.727-3.542,3.561c-6.314,3.587-13.088,6.469-19.047,10.55c-9.197,6.297-13.871,16.058-17.621,26.204
		c-1.179,3.188-1.88,6.552-2.798,9.837c-0.207,0.742-0.218,1.617-0.638,2.207c-0.768,1.078-1.869,2.854-2.656,2.766
		c-1.227-0.136-2.915-1.362-3.344-2.52c-1.664-4.491-3.46-9.054-4.193-13.747C130.276,96.537,129.39,86.653,128.239,76.808z"/>
	<path d="M44.992,188.939c-2.158-0.224-4.348-0.285-6.463-0.714c-2.449-0.494-2.781-1.69-1.156-3.512
		c12.422-13.916,17.231-30.757,18.764-48.851c0.179-2.11-0.491-4.96,2.156-5.5c1.561-0.319,3.773,0.892,5.232,2.013
		c9.095,6.993,18.738,12.659,30.418,14.047c8.315,0.989,16.378-0.429,24.404-2.328c1.962-0.464,3.896-1.043,5.86-1.496
		c1.779-0.41,4.135-1.377,4.909,0.837c0.466,1.334-0.565,3.438-1.41,4.919c-0.983,1.725-2.356,3.294-3.801,4.678
		c-13.457,12.903-28.515,23.41-46.085,29.946C67.234,186.917,55.366,188.84,44.992,188.939z"/>
	<path d="M105.312,64.545c-0.593,4.419-1.179,7.782-1.477,11.171c-1.427,16.153,4.363,29.793,14.836,41.708
		c2.449,2.787,5.237,5.271,7.808,7.953c1.272,1.328,3.035,2.951,1.554,4.743c-0.841,1.018-3.113,1.653-4.46,1.319
		c-6.745-1.671-13.59-3.219-20.04-5.737c-14.511-5.666-28.133-12.969-39.55-23.88c-7.692-7.353-14.038-15.69-19.044-25.061
		c-0.504-0.942-0.841-1.99-1.143-3.022c-0.664-2.266,0.526-3.012,2.445-2.389c12.508,4.061,24.533,0.093,36.61-2.242
		c5.62-1.087,10.975-3.15,15.841-6.424c1.296-0.873,3.516-0.918,5.131-0.55C104.676,62.325,105.137,64.231,105.312,64.545z"/>
	<path d="M155.082,140.111c10.445,1.048,19.105,4.465,27.588,8.339c11.894,5.433,23.308,11.656,32.891,20.79
		c7.929,7.558,14.702,15.974,19.723,25.744c0.423,0.824,0.815,1.682,1.082,2.568c0.722,2.391-0.067,3.415-2.421,2.805
		c-15.647-4.053-30.386,0.371-45.071,4.878c-2.9,0.89-5.361,3.135-8.22,4.266c-1.371,0.543-3.533,0.448-4.7-0.323
		c-0.824-0.543-1.024-2.803-0.742-4.137c4.682-22.116-2.425-40.314-18.249-55.68c-1.224-1.188-2.71-2.193-3.637-3.577
		c-0.767-1.147-1.544-3.005-1.11-4.036C152.646,140.731,154.597,140.359,155.082,140.111z"/>
	<path d="M244.52,84.489c-0.768,1.207-0.981,1.863-1.432,2.201c-6.758,5.045-9.164,12.78-12.128,20.053
		c-3.87,9.496-7.228,19.189-6.754,29.724c0.093,2.065-0.213,4.551-2.498,4.939c-1.468,0.25-3.466-0.888-4.81-1.936
		c-6.538-5.098-13.457-9.479-21.351-12.141c-9.88-3.333-19.894-2.682-29.89-0.66c-3.335,0.675-6.549,1.962-9.889,2.583
		c-1.475,0.274-3.128-0.416-4.7-0.67c0.3-1.55,0.093-3.538,0.989-4.573c3.542-4.09,7.118-8.252,11.247-11.712
		c10.87-9.106,22.545-17.108,35.817-22.351c12.84-5.071,26.189-7.685,40.079-6.799c1.229,0.078,2.455,0.319,3.66,0.589
		C243.453,83.872,243.992,84.243,244.52,84.489z"/>
	<path d="M151.112,194.286c0.435,18.773-4.148,36.248-13.885,52.338c-0.401,0.664-0.69,1.47-1.253,1.949
		c-1.106,0.944-2.369,1.703-3.566,2.539c-0.55-1.205-1.117-2.404-1.647-3.618c-1.233-2.826-2.098-5.879-3.732-8.448
		c-5.514-8.677-11.922-16.694-19.56-23.604c-2.841-2.57-6.194-4.616-9.468-6.653c-1.934-1.203-4.146-2.434-3.572-4.799
		c0.336-1.384,2.305-2.85,3.852-3.393c21.991-7.701,34.32-23.543,39.165-45.863c0.504-2.318,0.699-5.618,3.661-5.784
		c2.652-0.149,3.247,2.902,4.083,5.042c4.122,10.559,5.098,21.69,5.894,32.844C151.263,189.308,151.112,191.802,151.112,194.286z"/>
</g>
</svg>
