<?xml version="1.0" encoding="iso-8859-1"?>
<!-- Generator: Adobe Illustrator 17.0.0, SVG Export Plug-In . SVG Version: 6.00 Build 0)  -->
<!DOCTYPE svg PUBLIC "-//W3C//DTD SVG 1.1//EN" "http://www.w3.org/Graphics/SVG/1.1/DTD/svg11.dtd">
<svg version="1.1" id="Layer_1" xmlns="http://www.w3.org/2000/svg" xmlns:xlink="http://www.w3.org/1999/xlink" x="0px" y="0px"
	 width="283.46px" height="283.46px" viewBox="0 0 283.46 283.46" style="enable-background:new 0 0 283.46 283.46;"
	 xml:space="preserve">
<g id="Layer_8">
	<rect x="7.678" y="11.927" style="fill:#C91F47;stroke:#FFFFFF;stroke-miterlimit:10;" width="267.173" height="264.134"/>
</g>
<g id="Image" style="display:none;opacity:0.5;">
	
		<image style="display:inline;overflow:visible;enable-background:new    ;" width="500" height="439" xlink:href="1C8A5D0692384A19.jpeg"  transform="matrix(0.5 0 0 0.5 16.73 18.7602)">
	</image>
</g>
<g id="Traced">
	<circle id="Outer" style="display:none;" cx="142.303" cy="128.094" r="102.999"/>
	<circle id="Inner" style="display:none;fill:#FFFFFF;" cx="142.303" cy="128.094" r="99.626"/>
	<path id="Ring" style="fill:#FFFFFF;" d="M142.425,58.715c37.583-0.462,70.124,31.044,69.246,70.957
		c-0.817,37.151-31.87,68.687-71.385,67.649c-36.162-0.951-68.28-30.756-67.349-71.159C73.81,88.24,105.044,58.293,142.425,58.715z
		 M142.298,60.585c-36.32-0.208-67.786,29.49-67.432,68.085c0.339,37.03,30.508,66.43,66.816,66.724
		c37.623,0.305,68.358-30.186,68.051-67.962C209.428,89.839,178.623,60.425,142.298,60.585z"/>
	<g id="Ribeiro">
		<path style="fill:#FFFFFF;" d="M128.188,46.862c-0.342-0.7-1.599-0.953-2.44-1.409c0.49-0.882,0.98-1.764,1.366-2.458
			c0.167-4.839-2.804-7.138-7.265-5.813c-3.826,1.137-7.631,2.341-11.444,3.521c-0.949,0.294-2.367,0.356-2.703,0.986
			c-0.332,0.623,0.435,1.83,0.715,2.781c1.454,4.944,2.948,9.876,4.319,14.843c0.247,0.895,0.496,1.077,1.312,0.819
			c1.664-0.526,3.349-0.989,5.017-1.504c3.257-1.004,6.517-2,9.76-3.049c1.703-0.551,3.155-1.617,2.942-3.538
			C129.57,50.269,128.974,48.471,128.188,46.862z M113.804,43.231c-0.019-0.693,2.697-2.009,4.147-2.01
			c1.023-0.001,2.175,1.705,2.161,3.202c-0.009,0.929-2.557,2.358-4.258,2.388C115.077,46.824,113.843,44.669,113.804,43.231z
			 M118.231,54.828c-0.742-0.019-1.899-2.155-1.973-3.643c-0.045-0.894,2.578-2.328,4.204-2.298c0.85,0.016,2.156,2.259,2.084,3.58
			C122.495,53.408,119.823,54.87,118.231,54.828z"/>
		<path style="fill:#FFFFFF;" d="M93.683,64.683c-1.323-0.563-3.406-0.68-1.778-2.998c0.041-0.058,0.019-0.16,0.048-0.491
			c-0.237-0.381-0.514-0.993-0.939-1.474c-0.936-1.057-1.919-2.077-2.935-3.058c-2.323-2.242-3.843-2.346-6.239-0.127
			c-3.842,3.557-7.56,7.247-11.349,10.86c-0.619,0.59-0.603,0.843,0.065,1.513c4.1,4.106,8.134,8.28,12.104,12.512
			c0.609,0.649,0.887,0.832,1.519,0.202c1.471-1.466,2.955-2.92,4.453-4.358c0.517-0.497,0.616-0.789-0.05-1.336
			c-1.468-1.206-2.843-2.529-4.211-3.852c-0.485-0.469-1.325-0.921-0.53-1.827c0.657-0.748,1.272-1.169,2.352-0.61
			c1.472,0.762,3.045,1.329,4.58,1.966c2.678,1.112,2.691,1.119,4.683-0.873c1.229-1.229,2.418-2.496,3.625-3.746
			c-1.565-0.684-3.128-1.369-4.695-2.049C94.158,64.838,93.912,64.78,93.683,64.683z M80.909,68.166
			c-0.945-0.911-1.98-1.753-2.765-2.786c-0.172-0.226,0.475-1.181,0.873-1.703c0.397-0.52,0.899-1.008,1.457-1.342
			c0.575-0.345,1.521-0.871,1.866-0.645c0.989,0.645,1.756,1.631,2.916,2.788C83.613,65.871,82.261,67.018,80.909,68.166z"/>
		<path style="fill:#FFFFFF;" d="M190.125,51.451c0.94-2.282,0.532-3.92-1.692-5.034c-4.827-2.42-9.748-4.653-14.661-6.898
			c-0.31-0.141-1.144,0.154-1.281,0.453c-1.865,4.072-3.652,8.18-5.455,12.28c-0.697,1.587-1.385,3.178-2.077,4.767
			c1.645,0.792,3.275,1.617,4.939,2.366c1.895,0.853,1.863,0.806,2.562-1.048c0.556-1.474,1.165-2.94,1.907-4.326
			c0.282-0.526,1.018-1.16,1.522-1.139c0.876,0.037,1.414,0.76,1.34,1.767c-0.079,1.077-0.12,2.156-0.152,2.75
			c-0.192,5.242-0.192,5.242,4.222,7.322c0.676,0.319,1.365,0.616,2.015,0.981c1.116,0.627,1.185,0.188,1.123-0.865
			c-0.122-2.072-0.084-4.155-0.084-6.233c0-0.776,0.048-1.575,1.205-1.371c1.553,0.274,2.275-0.717,2.834-1.906
			C188.995,54.04,189.587,52.756,190.125,51.451z M180.818,51.478c-1.433-0.602-2.894-1.36-4.002-2.412
			c-0.476-0.452,1.694-3.683,2.269-3.636c1.419,0.115,4.238,2.071,4.201,2.914C183.219,49.843,181.724,51.859,180.818,51.478z"/>
		<path style="fill:#FFFFFF;" d="M211.152,64.745c-2.719-2.798-5.567-5.477-8.457-8.099c-2.046-1.856-4.293-1.872-6.243-0.003
			c-2.517,2.412-4.968,4.906-7.285,7.51c-2.086,2.344-1.984,4.599,0.221,6.842c2.678,2.724,5.439,5.37,8.242,7.964
			c2.34,2.166,4.541,2.178,6.826-0.024c2.451-2.362,4.812-4.825,7.089-7.355c0.739-0.821,1.087-1.992,1.743-3.251
			C212.572,67.092,212.084,65.704,211.152,64.745z M206.158,66.403c-2.28,2.523-4.685,4.934-7.076,7.355
			c-0.272,0.276-0.706,0.393-1.37,0.745c-1.144-1.117-2.468-2.136-3.428-3.425c-0.855-1.149,0.333-1.948,1.056-2.712
			c1.77-1.871,3.544-3.739,5.338-5.587c1.52-1.566,2.205-1.596,3.756-0.163c0.609,0.562,1.311,1.116,1.672,1.826
			C206.383,64.986,206.487,66.038,206.158,66.403z"/>
		<path style="fill:#FFFFFF;" d="M149.277,50.833c-1.744-0.032-3.497-0.007-5.233,0.144c-2.795,0.243-2.815,0.272-2.821-2.499
			c-0.001-0.416,0.027-0.834,0.005-1.248c-0.051-0.944,0.387-1.371,1.324-1.377c1.914-0.013,3.838-0.186,5.738-0.042
			c1.695,0.128,1.89-0.628,1.87-2.035c-0.021-1.505-0.716-1.538-1.902-1.381c-1.476,0.196-2.985,0.128-4.471,0.262
			c-2.637,0.237-2.713,0.112-2.756-2.636c-0.023-1.479,0.412-2.134,1.96-2.102c1.909,0.039,3.821-0.131,5.733-0.139
			c2.021-0.009,2.082-0.154,1.598-2.036c-0.321-1.248-1.148-1.271-2.071-1.254c-3.49,0.066-6.98,0.162-10.471,0.245
			c-1.082,0.026-2.164,0.078-3.245,0.06c-0.927-0.016-1.298,0.237-1.21,1.296c0.273,3.307,0.416,6.626,0.609,9.94
			c-0.075,0.003-0.151,0.006-0.226,0.009c0,2.328,0.234,4.688-0.082,6.973c-0.21,1.522,0.352,1.477,1.391,1.454
			c4.741-0.104,9.483-0.171,14.224-0.279c1.646-0.037,2.016-0.591,1.974-2.64C151.176,49.666,149.949,50.845,149.277,50.833z"/>
		<path style="fill:#FFFFFF;" d="M99.079,46.463c-0.18-0.314-0.405-0.601-0.581-0.859c-0.343,0.121-0.513,0.154-0.654,0.236
			c-1.872,1.086-3.74,2.177-5.607,3.27c-0.964,0.564-0.272,0.954,0.068,1.536c2.854,4.875,5.69,9.762,8.414,14.71
			c0.448,0.813,0.568,1.287,1.537,0.696c1.705-1.04,3.444-2.026,5.2-2.977c0.995-0.539,0.63-0.955,0.179-1.722
			C104.731,56.419,101.923,51.43,99.079,46.463z"/>
		<path style="fill:#FFFFFF;" d="M165.491,37.576c-2.24-0.631-4.506-1.17-7.131-1.825c-0.103,0.461-0.191,0.901-0.301,1.336
			c-1.394,5.47-2.716,10.96-4.25,16.391c-0.328,1.163-0.092,1.432,0.867,1.667c1.856,0.454,3.716,0.899,5.554,1.423
			c1.014,0.289,1.159-0.079,1.385-1.027c1.344-5.644,2.826-11.255,4.219-16.888C165.914,38.326,165.699,37.634,165.491,37.576z"/>
	</g>
	<g id="_x31_995" style="display:none;">
		<path style="display:inline;fill:#FFFFFF;" d="M229.862,117.914c-0.035,3.931-1.989,5.898-5.393,5.423
			c-0.327-0.046-0.745-0.04-0.953-0.237c-0.688-0.651-1.492-1.296-1.869-2.118c-0.229-0.499,1.729-0.872,2.81-0.18
			c0.729,0.467,1.309,0.817,1.874-0.028c0.255-0.382,0.28-0.919,0.409-1.386c-0.411-0.014-0.832-0.096-1.23-0.032
			c-2.496,0.404-4.082-0.616-4.357-2.838c-0.288-2.328,1.093-4,3.499-4.232C228.073,111.955,229.898,113.926,229.862,117.914z
			 M225.279,113.599c-0.596,1.177-1.185,1.804-1.105,2.329c0.084,0.556,0.805,1.016,1.247,1.519
			c0.456-0.488,1.279-0.979,1.275-1.464C226.691,115.369,226.015,114.76,225.279,113.599z"/>
		<path style="display:inline;fill:#FFFFFF;" d="M229.852,131.51c-0.04,4.123-1.909,5.926-5.581,5.378
			c-0.327-0.049-0.753-0.033-0.951-0.23c-0.61-0.606-1.131-1.301-1.686-1.961c0.895-0.122,1.955-0.6,2.644-0.279
			c0.94,0.438,1.606,0.949,2.204-0.229c0.199-0.392,0.123-0.923,0.173-1.391c-0.371,0.068-0.743,0.126-1.111,0.207
			c-2.114,0.463-3.815-0.442-4.301-2.294c-0.563-2.146,0.511-4.034,2.63-4.621C227.489,125.089,229.893,127.268,229.852,131.51z
			 M227.301,129.566c-0.827-0.674-1.306-1.379-1.872-1.457c-1.044-0.145-1.513,0.739-1.264,1.615
			c0.156,0.548,0.876,1.288,1.35,1.294C226.009,131.024,226.513,130.25,227.301,129.566z"/>
		<path style="display:inline;fill:#FFFFFF;" d="M226.077,139.629c0.748,0,1.539-0.15,2.228,0.052
			c0.474,0.139,1.105,0.757,1.115,1.174c0.01,0.403-0.627,1.076-1.083,1.182c-0.87,0.202-1.822,0.024-2.724,0.133
			c-0.295,0.035-0.541,0.469-0.81,0.72c0.272,0.127,0.534,0.311,0.82,0.364c0.32,0.06,0.664-0.026,0.993-0.002
			c1.976,0.146,3.228,1.229,3.442,2.963c0.212,1.72-0.951,3.539-2.616,4.09c-2.015,0.667-4.478,0.172-5.528-1.175
			c-0.285-0.366-0.387-0.876-0.574-1.32c0.507-0.174,1.035-0.528,1.517-0.474c0.585,0.065,1.108,0.586,1.699,0.707
			c0.65,0.133,1.593,0.301,1.957-0.035c0.399-0.369,0.577-1.463,0.309-1.931c-0.261-0.455-1.192-0.606-1.858-0.718
			c-0.356-0.06-0.764,0.311-1.165,0.373c-1.695,0.261-2.191-0.246-2.035-2.012c0.007-0.083,0.016-0.165,0.025-0.248
			C222.192,139.605,222.192,139.605,226.077,139.629z"/>
		<path style="display:inline;fill:#FFFFFF;" d="M227.902,104.196c0,1.408-0.008,2.817,0.002,4.225
			c0.009,1.191-0.771,1.257-1.675,1.257c-0.914,0-1.389-0.342-1.374-1.311c0.021-1.408-0.04-2.818-0.005-4.225
			c0.03-1.188-0.333-1.475-1.437-0.889c-0.409,0.217-1.005,0.082-1.516,0.108c0.144-0.665,0.077-1.528,0.475-1.955
			c0.885-0.95,1.963-1.742,3.039-2.487c1.218-0.844,2.388-0.196,2.492,1.299c0.006,0.083,0.004,0.166,0.004,0.248
			c0,1.243,0,2.486,0,3.728C227.906,104.196,227.904,104.196,227.902,104.196z"/>
	</g>
	<g id="Jiu-Jitsu" style="display:none;">
		<path style="display:inline;fill:#FFFFFF;" d="M216.091,186.061c-0.245,0.715-0.374,2.203-1.157,3.15
			c-1.728,2.09-3.592,4.173-5.762,5.766c-2.4,1.763-5.265,1.633-7.73-0.097c-1.752-1.23-3.269-2.808-4.831-4.293
			c-1.688-1.604-3.273-3.317-4.969-4.912c-0.875-0.822-0.807-1.357,0.017-2.217c3.371-3.52,3.346-3.556,6.802-0.155
			c1.838,1.809,3.617,3.679,5.483,5.457c1.841,1.755,3.44,1.776,4.992,0.19c1.551-1.584,1.562-3.25-0.148-5.029
			c-2.478-2.579-5.015-5.103-7.588-7.588c-0.924-0.893-0.931-1.448,0.006-2.4c3.354-3.407,3.313-3.449,6.782,0.008
			c1.768,1.762,3.552,3.508,5.297,5.292C214.973,180.959,215.96,183.019,216.091,186.061z"/>
		<path style="display:inline;fill:#FFFFFF;" d="M108.972,216.45c-3.717-0.31-6.885-1.764-9.535-4.143
			c-1.832-1.644-2.436-3.945-2.013-6.397c0.182-1.057,0.501-2.113,0.921-3.101c1.302-3.064,2.723-6.077,4.011-9.145
			c0.577-1.374,1.124-1.889,2.723-1.126c4.095,1.954,4.123,1.855,2.183,6.1c-1.106,2.422-2.212,4.848-3.203,7.318
			c-0.773,1.926-0.384,3.244,0.998,4.215c2.043,1.435,4.014,1.004,5.17-1.343c1.36-2.759,2.534-5.61,3.777-8.427
			c1.385-3.137,1.379-3.14,4.52-1.782c0.153,0.066,0.312,0.118,0.464,0.185c2.361,1.039,2.37,1.043,1.321,3.401
			c-1.387,3.116-2.772,6.234-4.19,9.336C114.705,214.635,112.231,216.197,108.972,216.45z"/>
		<path style="display:inline;fill:#FFFFFF;" d="M198.898,200.524c0,0.167,0.015,0.335-0.002,0.5
			c-0.479,4.567-3.87,6.505-7.458,8.275c-2.721,1.343-5.307,1.197-7.727-0.684c-1.763-1.37-1.752-1.551-0.015-2.842
			c0.401-0.298,0.844-0.546,1.215-0.876c1.17-1.043,2.16-1.783,3.772-0.378c1.201,1.047,3.749-0.003,4.441-1.471
			c0.676-1.434-0.133-2.807-1.745-2.706c-1.055,0.066-2.077,0.554-3.129,0.776c-1.861,0.392-3.731,1.007-5.602,1.024
			c-3.669,0.034-5.869-3.432-4.89-6.98c0.977-3.543,7.233-7.413,10.583-7.262c0.726,0.033,1.487,0.272,2.147,0.591
			c2.55,1.23,2.623,2.013,0.366,3.616c-1.361,0.966-2.585,2.467-4.583,1.03c-0.367-0.264-1.312,0.039-1.866,0.322
			c-0.88,0.45-1.966,1.15-1.297,2.256c0.286,0.473,1.614,0.623,2.361,0.451c1.857-0.429,3.624-1.245,5.478-1.693
			C195.413,193.396,198.942,196.129,198.898,200.524z"/>
		<path style="display:inline;fill:#FFFFFF;" d="M163.721,204.59c-1.671,0.519-2.993,0.798-4.198,1.339
			c-1.312,0.589-1.765,0.017-2.172-1.091c-1.2-3.268-1.223-3.261,2.161-4.363c4.502-1.467,9.021-2.882,13.496-4.425
			c1.383-0.477,2.04-0.114,2.342,1.219c0.036,0.161,0.111,0.313,0.164,0.471c0.902,2.649,0.902,2.65-1.764,3.528
			c-3.592,1.184-3.584,1.181-2.357,4.846c1.029,3.071,2.004,6.161,3.07,9.22c0.441,1.266,0.273,1.982-1.157,2.383
			c-5.25,1.475-3.97,2.629-5.886-2.969c-0.969-2.829-1.8-5.705-2.751-8.54C164.464,205.6,164.012,205.075,163.721,204.59z"/>
		<path style="display:inline;fill:#FFFFFF;" d="M79.368,196.72c-6.148-0.497-10.713-7.473-8.061-12.43
			c1.052-1.967,1.346-2.038,3.095-0.723c0.598,0.45,1.17,0.935,1.779,1.369c0.909,0.648,1.514,1.279,0.526,2.397
			c-0.753,0.851-0.831,1.855,0.14,2.632c0.927,0.742,1.904,0.511,2.71-0.242c2.671-2.495,5.314-5.022,7.963-7.542
			c0.361-0.343,0.724-0.692,1.038-1.077c0.789-0.968,1.418-0.829,2.162,0.115c0.964,1.224,2.855,2.347,2.858,3.518
			c0.003,1.148-1.801,2.362-2.917,3.439c-2.27,2.192-4.514,4.431-6.963,6.41C82.476,195.571,80.825,196.025,79.368,196.72z"/>
		<path style="display:inline;fill:#FFFFFF;" d="M145.478,209.823c-0.11,2.162-0.121,4.335-0.352,6.485
			c-0.495,4.626-3.188,6.996-7.867,6.849c-1.551-0.049-3.121-0.428-4.621-0.865c-1.713-0.499-2.739-1.852-3.377-3.459
			c-1.119-2.823-0.781-3.329,2.267-3.627c0.579-0.057,1.155-0.156,1.728-0.257c0.871-0.153,1.479,0.042,1.562,1.059
			c0.02,0.244,0.061,0.554,0.217,0.707c0.549,0.535,1.086,1.298,1.749,1.451c1.101,0.254,1.604-0.705,1.819-1.64
			c0.185-0.803,0.254-1.643,0.291-2.47c0.149-3.328,0.307-6.656,0.375-9.986c0.027-1.343,0.419-2.077,1.89-1.794
			c0.08,0.015,0.166,0.001,0.25,0c4.303-0.053,4.295-0.053,4.148,4.301c-0.037,1.08-0.005,2.163-0.005,3.244
			C145.527,209.821,145.503,209.822,145.478,209.823z"/>
		<path style="display:inline;fill:#FFFFFF;" d="M89.291,206.907c-1.627-1.319-3.115-2.492-4.538-3.74
			c-0.117-0.103,0.124-0.772,0.342-1.075c3.493-4.86,7.02-9.696,10.512-14.556c0.628-0.875,1.138-0.87,2.032-0.272
			c4.229,2.825,4.234,2.782,1.245,6.855c-2.754,3.753-5.463,7.539-8.21,11.296C90.31,205.91,89.834,206.325,89.291,206.907z"/>
		<path style="display:inline;fill:#FFFFFF;" d="M153.578,222.282c-2.194,0.088-2.193,0.088-2.446-2.157
			c-0.603-5.35-1.208-10.7-1.807-16.051c-0.224-2.003-0.143-2.108,1.822-2.275c1.389-0.118,3.498-0.801,4.009-0.18
			c0.86,1.044,0.784,2.914,0.963,4.453c0.526,4.525,0.975,9.058,1.473,13.586c0.218,1.981,0.157,2.105-1.787,2.4
			C155.068,222.168,154.321,222.209,153.578,222.282z"/>
		<path style="display:inline;fill:#FFFFFF;" d="M126.034,216.007c-2.416-0.54-4.343-0.977-6.274-1.399
			c-0.936-0.204-1.099-0.79-0.981-1.654c0.391-2.865,0.672-3.088,3.446-2.464c1.126,0.253,2.243,0.546,3.367,0.811
			c2.118,0.499,2.119,0.496,1.664,2.575c-0.088,0.402-0.094,0.862-0.305,1.185C126.668,215.494,126.223,215.82,126.034,216.007z"/>
	</g>
	<g id="Est" style="display:none;">
		<path style="display:inline;fill:#FFFFFF;" d="M59.28,105.672c1.081,0,2.163,0.01,3.244-0.003c0.828-0.01,1.189,0.35,1.178,1.202
			c-0.011,0.836-0.37,1.22-1.188,1.229c-1.164,0.012-2.332-0.012-3.49,0.084c-0.307,0.026-0.583,0.433-0.873,0.666
			c0.3,0.308,0.571,0.837,0.907,0.882c0.982,0.133,1.99,0.087,2.988,0.085c0.8-0.001,1.379,0.327,1.16,1.16
			c-0.105,0.399-0.665,0.889-1.079,0.955c-0.976,0.155-2.004-0.015-2.979,0.145c-0.397,0.065-0.71,0.643-1.062,0.988
			c0.363,0.351,0.694,0.952,1.097,1.005c1.146,0.153,2.333-0.001,3.481,0.144c0.411,0.052,1.125,0.732,1.064,0.918
			c-0.161,0.495-0.649,1.225-1.041,1.247c-2.239,0.126-4.487,0.076-6.733,0.077c-0.968,0-1.262-0.568-1.256-1.453
			c0.019-2.579,0.041-5.158-0.01-7.736c-0.023-1.171,0.424-1.673,1.598-1.615c0.996,0.049,1.996,0.01,2.994,0.01
			C59.28,105.666,59.28,105.669,59.28,105.672z"/>
		<path style="display:inline;fill:#FFFFFF;" d="M59.049,119.111c1.643,0.072,3.194,0.121,4.011,1.701
			c0.387,0.747,0.426,1.574-0.787,1.45c-0.84-0.086-1.66-0.399-2.478-0.645c-0.306-0.092-0.587-0.411-0.871-0.4
			c-0.365,0.014-0.721,0.255-1.081,0.398c0.187,0.321,0.303,0.828,0.572,0.93c1.005,0.379,2.071,0.591,3.093,0.93
			c1.47,0.488,2.499,1.485,2.463,3.074c-0.035,1.528-0.932,2.652-2.414,3.165c-2.146,0.743-4.318,0.779-6.138-0.68
			c-0.599-0.48-0.636-1.662-0.929-2.522c1.013,0.083,2.045,0.076,3.029,0.291c0.399,0.087,0.658,0.897,1.04,0.95
			c0.556,0.077,1.165-0.233,1.752-0.378c-0.242-0.511-0.351-1.238-0.755-1.486c-0.685-0.421-1.568-0.506-2.346-0.791
			c-2.094-0.77-2.816-1.761-2.546-3.421c0.239-1.465,1.323-2.3,3.266-2.501C58.345,119.132,58.761,119.127,59.049,119.111z"/>
		<path style="display:inline;fill:#FFFFFF;" d="M59.259,132.835c1.161,0.002,2.321,0.008,3.482,0
			c0.811-0.006,1.477,0.1,1.506,1.162c0.028,1.027-0.526,1.337-1.393,1.221c-1.855-0.248-2.262,0.688-2.142,2.318
			c0.11,1.484-0.023,2.984,0.033,4.474c0.042,1.12-0.289,1.679-1.529,1.665c-1.158-0.013-1.926-0.178-1.863-1.604
			c0.074-1.654-0.047-3.317,0.024-4.972c0.058-1.356-0.396-1.966-1.836-1.913c-0.51,0.019-1.351-0.385-1.496-0.79
			c-0.327-0.913,0.087-1.595,1.235-1.57C56.606,132.855,57.933,132.833,59.259,132.835z"/>
		<path style="display:inline;fill:#FFFFFF;" d="M67.169,142.156c0.121,1.036-0.287,1.504-1.374,1.502
			c-1.015-0.002-1.503-0.305-1.495-1.403c0.008-1.016,0.318-1.506,1.408-1.497C66.715,140.765,67.299,141.055,67.169,142.156z"/>
	</g>
	<g id="Symbol_1_">
		<path style="fill:#FFFFFF;" d="M135.93,96.324c0.282-10.003,2.85-19.258,7.9-27.836c0.168-0.286,0.316-0.608,0.554-0.823
			c0.651-0.585,1.345-1.122,2.023-1.678c0.291,0.743,0.576,1.49,0.876,2.23c0.529,1.305,0.823,2.791,1.644,3.877
			c3.003,3.971,6.005,7.973,9.365,11.634c1.923,2.095,4.578,3.505,6.82,5.327c0.717,0.583,1.624,1.517,1.596,2.258
			c-0.025,0.669-1.114,1.462-1.899,1.909c-3.385,1.923-7.017,3.468-10.212,5.656c-4.931,3.376-7.437,8.609-9.447,14.049
			c-0.632,1.709-1.008,3.513-1.5,5.274c-0.111,0.398-0.117,0.867-0.342,1.183c-0.412,0.578-1.002,1.53-1.424,1.483
			c-0.658-0.073-1.563-0.73-1.793-1.351c-0.892-2.408-1.855-4.854-2.248-7.37C137.022,106.901,136.547,101.602,135.93,96.324z"/>
		<path style="fill:#FFFFFF;" d="M91.298,156.441c-1.157-0.12-2.331-0.153-3.465-0.383c-1.313-0.265-1.491-0.906-0.62-1.883
			c6.66-7.461,9.238-16.49,10.06-26.191c0.096-1.131-0.263-2.659,1.156-2.949c0.837-0.171,2.023,0.478,2.805,1.079
			c4.876,3.749,10.046,6.787,16.308,7.531c4.458,0.53,8.781-0.23,13.084-1.248c1.052-0.249,2.089-0.559,3.142-0.802
			c0.954-0.22,2.217-0.738,2.632,0.449c0.25,0.715-0.303,1.843-0.756,2.637c-0.527,0.925-1.263,1.766-2.038,2.508
			c-7.215,6.918-15.288,12.551-24.708,16.055C103.223,155.357,96.86,156.388,91.298,156.441z"/>
		<path style="fill:#FFFFFF;" d="M123.638,89.749c-0.318,2.369-0.632,4.172-0.792,5.989c-0.765,8.66,2.339,15.973,7.954,22.361
			c1.313,1.494,2.808,2.826,4.186,4.264c0.682,0.712,1.627,1.582,0.833,2.543c-0.451,0.546-1.669,0.886-2.391,0.707
			c-3.616-0.896-7.286-1.726-10.744-3.076c-7.78-3.038-15.083-6.953-21.204-12.803c-4.124-3.942-7.526-8.412-10.21-13.436
			c-0.27-0.505-0.451-1.067-0.613-1.62c-0.356-1.215,0.282-1.615,1.311-1.281c6.706,2.177,13.153,0.05,19.628-1.202
			c3.013-0.583,5.884-1.689,8.493-3.444c0.695-0.468,1.885-0.492,2.751-0.295C123.297,88.559,123.544,89.581,123.638,89.749z"/>
		<path style="fill:#FFFFFF;" d="M150.321,130.263c5.6,0.562,10.243,2.394,14.791,4.471c6.377,2.913,12.496,6.249,17.634,11.146
			c4.251,4.052,7.882,8.564,10.574,13.802c0.227,0.442,0.437,0.902,0.58,1.377c0.387,1.282-0.036,1.831-1.298,1.504
			c-8.389-2.173-16.291,0.199-24.164,2.615c-1.555,0.477-2.874,1.681-4.407,2.287c-0.735,0.291-1.894,0.24-2.52-0.173
			c-0.442-0.291-0.549-1.503-0.398-2.218c2.51-11.857-1.3-21.614-9.784-29.852c-0.656-0.637-1.453-1.176-1.95-1.918
			c-0.411-0.615-0.828-1.611-0.595-2.164C149.015,130.595,150.061,130.396,150.321,130.263z"/>
		<path style="fill:#FFFFFF;" d="M198.272,100.442c-0.412,0.647-0.526,0.999-0.768,1.18c-3.623,2.705-4.913,6.852-6.502,10.751
			c-2.075,5.091-3.875,10.288-3.621,15.936c0.05,1.107-0.114,2.44-1.339,2.648c-0.787,0.134-1.858-0.476-2.579-1.038
			c-3.505-2.733-7.215-5.082-11.447-6.509c-5.297-1.787-10.666-1.438-16.025-0.354c-1.788,0.362-3.511,1.052-5.302,1.385
			c-0.791,0.147-1.677-0.223-2.52-0.359c0.161-0.831,0.05-1.897,0.53-2.452c1.899-2.193,3.816-4.424,6.03-6.279
			c5.828-4.882,12.087-9.172,19.203-11.983c6.884-2.719,14.041-4.12,21.488-3.645c0.659,0.042,1.316,0.171,1.962,0.316
			C197.7,100.111,197.989,100.31,198.272,100.442z"/>
		<path style="fill:#FFFFFF;" d="M148.193,159.308c0.233,10.065-2.224,19.434-7.444,28.06c-0.215,0.356-0.37,0.788-0.672,1.045
			c-0.593,0.506-1.27,0.913-1.912,1.361c-0.295-0.646-0.599-1.289-0.883-1.94c-0.661-1.515-1.125-3.152-2.001-4.529
			c-2.956-4.652-6.392-8.95-10.487-12.655c-1.523-1.378-3.321-2.475-5.076-3.567c-1.037-0.645-2.223-1.305-1.915-2.573
			c0.18-0.742,1.236-1.528,2.065-1.819c11.79-4.129,18.4-12.622,20.998-24.589c0.27-1.243,0.375-3.012,1.963-3.101
			c1.422-0.08,1.741,1.556,2.189,2.703c2.21,5.661,2.733,11.629,3.16,17.609C148.274,156.639,148.193,157.976,148.193,159.308z"/>
	</g>
</g>
</svg>
