<?xml version="1.0" encoding="utf-8"?>
<!-- Generator: Adobe Illustrator 17.0.0, SVG Export Plug-In . SVG Version: 6.00 Build 0)  -->
<!DOCTYPE svg PUBLIC "-//W3C//DTD SVG 1.1//EN" "http://www.w3.org/Graphics/SVG/1.1/DTD/svg11.dtd">
<svg version="1.1" xmlns="http://www.w3.org/2000/svg" xmlns:xlink="http://www.w3.org/1999/xlink" x="0px" y="0px"
	 width="283.46px" height="283.46px" viewBox="0 0 283.46 283.46" enable-background="new 0 0 283.46 283.46" xml:space="preserve">
<g id="Layer_2" display="none">
	<g display="inline">
		<g>
			<path d="M141.73,7.87c5.195,10.714,11.981,16.771,18.73,23.713c5.833,6,13.082,11.474,21.145,18.94
				c9.637,8.924,16.304,14.435,21.355,18.81c7.181,6.22,40.566,39.032,45,44.667c3.875,4.924,8.765,10.436,11.5,19.25
				c2.25,7.25,5.5,18.302,5.5,21.25c0,1.892,0.123,16-8.25,29.5c-2.717,4.38-10.236,11.557-19.25,15.75
				c-11.373,5.29-16.479,7.693-32.433,8.232c-15.317,0.518-19.303-1.944-32.567-6.732c-11.592-4.185-15.671-8.529-18.639-14.298
				c-1.615-3.141-1.132,5.545,3.291,22.328c1.705,6.468,3.126,15.922,6.598,23.971c3.742,8.674,11,23.5,21.75,34.5
				c9.196,9.41,34.071,11.805,29.945,11.805c-28.896,0-73.675,0-73.675,0V7.87z"/>
		</g>
		<g>
			<path d="M141.73,7.87c-5.195,10.714-11.981,16.771-18.73,23.713c-5.833,6-13.082,11.474-21.145,18.94
				c-9.637,8.924-16.304,14.435-21.355,18.81c-7.181,6.22-40.566,39.032-45,44.667c-3.875,4.924-8.765,10.436-11.5,19.25
				c-2.25,7.25-5.5,18.302-5.5,21.25c0,1.892-0.123,16,8.25,29.5c2.717,4.38,10.236,11.557,19.25,15.75
				c11.373,5.29,16.479,7.693,32.433,8.232C93.75,208.5,97.737,206.038,111,201.25c11.592-4.185,15.671-8.529,18.639-14.298
				c1.615-3.141,1.132,5.545-3.291,22.328c-1.705,6.468-3.126,15.922-6.598,23.971c-3.742,8.674-11,23.5-21.75,34.5
				c-9.196,9.41-34.071,11.805-29.945,11.805c28.896,0,73.675,0,73.675,0V7.87z"/>
		</g>
	</g>
</g>
<g id="Layer_3">
	<g>
		<path d="M264.96,154.5c0-2.948-3.25-14-5.5-21.25c-2.735-8.814-7.625-14.326-11.5-19.25c-4.434-5.635-37.819-38.447-45-44.667
			c-5.051-4.375-11.718-9.886-21.355-18.81c-8.063-7.466-15.312-12.94-21.145-18.94c-6.749-6.942-13.535-12.999-18.73-23.713
			c-5.195,10.714-11.981,16.771-18.73,23.713c-5.833,6-13.082,11.474-21.145,18.94c-9.637,8.924-16.304,14.435-21.355,18.81
			c-7.181,6.22-40.566,39.032-45,44.667c-3.875,4.924-8.765,10.436-11.5,19.25c-2.25,7.25-5.5,18.302-5.5,21.25
			c0,1.892-0.123,16,8.25,29.5c2.717,4.38,10.236,11.557,19.25,15.75c11.373,5.29,16.479,7.693,32.433,8.232
			C93.75,208.5,97.737,206.038,111,201.25c11.592-4.185,15.671-8.529,18.639-14.298c1.615-3.141,1.132,5.545-3.291,22.328
			c-1.705,6.468-3.126,15.922-6.598,23.971c-3.742,8.674-11,23.5-21.75,34.5c-9.196,9.41-34.071,11.805-29.945,11.805
			c28.896,0,73.675,0,73.675,0s44.779,0,73.675,0c4.125,0-20.749-2.394-29.945-11.805c-10.75-11-18.008-25.826-21.75-34.5
			c-3.472-8.049-4.893-17.502-6.598-23.971c-4.423-16.782-4.906-25.468-3.291-22.328c2.967,5.769,7.046,10.113,18.639,14.298
			c13.263,4.788,17.25,7.25,32.567,6.732c15.954-0.539,21.06-2.942,32.433-8.232c9.014-4.193,16.533-11.37,19.25-15.75
			C265.083,170.5,264.96,156.392,264.96,154.5z"/>
	</g>
</g>
</svg>
